%TF.GenerationSoftware,KiCad,Pcbnew,8.0.2*%
%TF.CreationDate,2024-05-01T18:58:11+02:00*%
%TF.ProjectId,OpenC64Cart,4f70656e-4336-4344-9361-72742e6b6963,2*%
%TF.SameCoordinates,Original*%
%TF.FileFunction,Soldermask,Top*%
%TF.FilePolarity,Negative*%
%FSLAX46Y46*%
G04 Gerber Fmt 4.6, Leading zero omitted, Abs format (unit mm)*
G04 Created by KiCad (PCBNEW 8.0.2) date 2024-05-01 18:58:11*
%MOMM*%
%LPD*%
G01*
G04 APERTURE LIST*
%ADD10R,7.620000X1.780000*%
%ADD11C,1.600000*%
%ADD12R,1.600000X1.600000*%
%ADD13O,1.600000X1.600000*%
%ADD14C,5.500000*%
G04 APERTURE END LIST*
D10*
%TO.C,CN1*%
X107430000Y-62070000D03*
X107430000Y-64610000D03*
X107430000Y-67150000D03*
X107430000Y-69690000D03*
X107430000Y-72230000D03*
X107430000Y-74770000D03*
X107430000Y-77310000D03*
X107430000Y-79850000D03*
X107430000Y-82390000D03*
X107430000Y-84930000D03*
X107430000Y-87470000D03*
X107430000Y-90010000D03*
X107430000Y-92550000D03*
X107430000Y-95090000D03*
X107430000Y-97630000D03*
X107430000Y-100170000D03*
X107430000Y-102710000D03*
X107430000Y-105250000D03*
X107430000Y-107790000D03*
X107430000Y-110330000D03*
X107430000Y-112870000D03*
X107430000Y-115410000D03*
%TD*%
D11*
%TO.C,C1*%
X184860000Y-80440000D03*
X184860000Y-77940000D03*
%TD*%
%TO.C,C7*%
X185340000Y-115500000D03*
X182840000Y-115500000D03*
%TD*%
D12*
%TO.C,SRAM1*%
X184470000Y-98045000D03*
D13*
X181930000Y-98045000D03*
X179390000Y-98045000D03*
X176850000Y-98045000D03*
X174310000Y-98045000D03*
X171770000Y-98045000D03*
X169230000Y-98045000D03*
X166690000Y-98045000D03*
X164150000Y-98045000D03*
X161610000Y-98045000D03*
X159070000Y-98045000D03*
X156530000Y-98045000D03*
X153990000Y-98045000D03*
X151450000Y-98045000D03*
X148910000Y-98045000D03*
X146370000Y-98045000D03*
X146370000Y-113285000D03*
X148910000Y-113285000D03*
X151450000Y-113285000D03*
X153990000Y-113285000D03*
X156530000Y-113285000D03*
X159070000Y-113285000D03*
X161610000Y-113285000D03*
X164150000Y-113285000D03*
X166690000Y-113285000D03*
X169230000Y-113285000D03*
X171770000Y-113285000D03*
X174310000Y-113285000D03*
X176850000Y-113285000D03*
X179390000Y-113285000D03*
X181930000Y-113285000D03*
X184470000Y-113285000D03*
%TD*%
D11*
%TO.C,C2*%
X124400000Y-63070000D03*
X121900000Y-63070000D03*
%TD*%
D12*
%TO.C,U1*%
X114210000Y-66370000D03*
D13*
X114210000Y-68910000D03*
X114210000Y-71450000D03*
X114210000Y-73990000D03*
X114210000Y-76530000D03*
X114210000Y-79070000D03*
X114210000Y-81610000D03*
X121830000Y-81610000D03*
X121830000Y-79070000D03*
X121830000Y-76530000D03*
X121830000Y-73990000D03*
X121830000Y-71450000D03*
X121830000Y-68910000D03*
X121830000Y-66370000D03*
%TD*%
D14*
%TO.C,H1*%
X146650000Y-88920000D03*
%TD*%
D12*
%TO.C,U4*%
X182150000Y-84060000D03*
D13*
X179610000Y-84060000D03*
X177070000Y-84060000D03*
X174530000Y-84060000D03*
X171990000Y-84060000D03*
X169450000Y-84060000D03*
X166910000Y-84060000D03*
X164370000Y-84060000D03*
X161830000Y-84060000D03*
X159290000Y-84060000D03*
X159290000Y-91680000D03*
X161830000Y-91680000D03*
X164370000Y-91680000D03*
X166910000Y-91680000D03*
X169450000Y-91680000D03*
X171990000Y-91680000D03*
X174530000Y-91680000D03*
X177070000Y-91680000D03*
X179610000Y-91680000D03*
X182150000Y-91680000D03*
%TD*%
D11*
%TO.C,C3*%
X114600000Y-115370000D03*
X114600000Y-112870000D03*
%TD*%
%TO.C,C4*%
X184790000Y-94230000D03*
X184790000Y-91730000D03*
%TD*%
%TO.C,C5*%
X148370000Y-63490000D03*
X145870000Y-63490000D03*
%TD*%
D12*
%TO.C,U2*%
X126060000Y-66400000D03*
D13*
X126060000Y-68940000D03*
X126060000Y-71480000D03*
X126060000Y-74020000D03*
X126060000Y-76560000D03*
X126060000Y-79100000D03*
X126060000Y-81640000D03*
X133680000Y-81640000D03*
X133680000Y-79100000D03*
X133680000Y-76560000D03*
X133680000Y-74020000D03*
X133680000Y-71480000D03*
X133680000Y-68940000D03*
X133680000Y-66400000D03*
%TD*%
D12*
%TO.C,U6*%
X117730000Y-112850000D03*
D13*
X120270000Y-112850000D03*
X122810000Y-112850000D03*
X125350000Y-112850000D03*
X127890000Y-112850000D03*
X130430000Y-112850000D03*
X132970000Y-112850000D03*
X135510000Y-112850000D03*
X138050000Y-112850000D03*
X140590000Y-112850000D03*
X140590000Y-105230000D03*
X138050000Y-105230000D03*
X135510000Y-105230000D03*
X132970000Y-105230000D03*
X130430000Y-105230000D03*
X127890000Y-105230000D03*
X125350000Y-105230000D03*
X122810000Y-105230000D03*
X120270000Y-105230000D03*
X117730000Y-105230000D03*
%TD*%
D11*
%TO.C,C6*%
X136170000Y-63360000D03*
X133670000Y-63360000D03*
%TD*%
D12*
%TO.C,U3*%
X138270000Y-66390000D03*
D13*
X138270000Y-68930000D03*
X138270000Y-71470000D03*
X138270000Y-74010000D03*
X138270000Y-76550000D03*
X138270000Y-79090000D03*
X138270000Y-81630000D03*
X145890000Y-81630000D03*
X145890000Y-79090000D03*
X145890000Y-76550000D03*
X145890000Y-74010000D03*
X145890000Y-71470000D03*
X145890000Y-68930000D03*
X145890000Y-66390000D03*
%TD*%
D12*
%TO.C,U5*%
X182190000Y-70260000D03*
D13*
X179650000Y-70260000D03*
X177110000Y-70260000D03*
X174570000Y-70260000D03*
X172030000Y-70260000D03*
X169490000Y-70260000D03*
X166950000Y-70260000D03*
X164410000Y-70260000D03*
X161870000Y-70260000D03*
X159330000Y-70260000D03*
X159330000Y-77880000D03*
X161870000Y-77880000D03*
X164410000Y-77880000D03*
X166950000Y-77880000D03*
X169490000Y-77880000D03*
X172030000Y-77880000D03*
X174570000Y-77880000D03*
X177110000Y-77880000D03*
X179650000Y-77880000D03*
X182190000Y-77880000D03*
%TD*%
M02*
