%TF.GenerationSoftware,KiCad,Pcbnew,8.0.2*%
%TF.CreationDate,2024-05-01T18:58:11+02:00*%
%TF.ProjectId,OpenC64Cart,4f70656e-4336-4344-9361-72742e6b6963,2*%
%TF.SameCoordinates,Original*%
%TF.FileFunction,Legend,Bot*%
%TF.FilePolarity,Positive*%
%FSLAX46Y46*%
G04 Gerber Fmt 4.6, Leading zero omitted, Abs format (unit mm)*
G04 Created by KiCad (PCBNEW 8.0.2) date 2024-05-01 18:58:11*
%MOMM*%
%LPD*%
G01*
G04 APERTURE LIST*
%ADD10C,0.150000*%
%ADD11C,0.442151*%
G04 APERTURE END LIST*
D10*
X178950839Y-110474104D02*
X178474649Y-110474104D01*
X179046077Y-110759819D02*
X178712744Y-109759819D01*
X178712744Y-109759819D02*
X178379411Y-110759819D01*
X178188934Y-110093152D02*
X177807982Y-110093152D01*
X178046077Y-109759819D02*
X178046077Y-110616961D01*
X178046077Y-110616961D02*
X177998458Y-110712200D01*
X177998458Y-110712200D02*
X177903220Y-110759819D01*
X177903220Y-110759819D02*
X177807982Y-110759819D01*
X177617505Y-110093152D02*
X177236553Y-110093152D01*
X177474648Y-109759819D02*
X177474648Y-110616961D01*
X177474648Y-110616961D02*
X177427029Y-110712200D01*
X177427029Y-110712200D02*
X177331791Y-110759819D01*
X177331791Y-110759819D02*
X177236553Y-110759819D01*
X176903219Y-110759819D02*
X176903219Y-110093152D01*
X176903219Y-110283628D02*
X176855600Y-110188390D01*
X176855600Y-110188390D02*
X176807981Y-110140771D01*
X176807981Y-110140771D02*
X176712743Y-110093152D01*
X176712743Y-110093152D02*
X176617505Y-110093152D01*
X176284171Y-110759819D02*
X176284171Y-110093152D01*
X176284171Y-109759819D02*
X176331790Y-109807438D01*
X176331790Y-109807438D02*
X176284171Y-109855057D01*
X176284171Y-109855057D02*
X176236552Y-109807438D01*
X176236552Y-109807438D02*
X176284171Y-109759819D01*
X176284171Y-109759819D02*
X176284171Y-109855057D01*
X175807981Y-110759819D02*
X175807981Y-109759819D01*
X175807981Y-110140771D02*
X175712743Y-110093152D01*
X175712743Y-110093152D02*
X175522267Y-110093152D01*
X175522267Y-110093152D02*
X175427029Y-110140771D01*
X175427029Y-110140771D02*
X175379410Y-110188390D01*
X175379410Y-110188390D02*
X175331791Y-110283628D01*
X175331791Y-110283628D02*
X175331791Y-110569342D01*
X175331791Y-110569342D02*
X175379410Y-110664580D01*
X175379410Y-110664580D02*
X175427029Y-110712200D01*
X175427029Y-110712200D02*
X175522267Y-110759819D01*
X175522267Y-110759819D02*
X175712743Y-110759819D01*
X175712743Y-110759819D02*
X175807981Y-110712200D01*
X174474648Y-110093152D02*
X174474648Y-110759819D01*
X174903219Y-110093152D02*
X174903219Y-110616961D01*
X174903219Y-110616961D02*
X174855600Y-110712200D01*
X174855600Y-110712200D02*
X174760362Y-110759819D01*
X174760362Y-110759819D02*
X174617505Y-110759819D01*
X174617505Y-110759819D02*
X174522267Y-110712200D01*
X174522267Y-110712200D02*
X174474648Y-110664580D01*
X174141314Y-110093152D02*
X173760362Y-110093152D01*
X173998457Y-109759819D02*
X173998457Y-110616961D01*
X173998457Y-110616961D02*
X173950838Y-110712200D01*
X173950838Y-110712200D02*
X173855600Y-110759819D01*
X173855600Y-110759819D02*
X173760362Y-110759819D01*
X173427028Y-110759819D02*
X173427028Y-110093152D01*
X173427028Y-109759819D02*
X173474647Y-109807438D01*
X173474647Y-109807438D02*
X173427028Y-109855057D01*
X173427028Y-109855057D02*
X173379409Y-109807438D01*
X173379409Y-109807438D02*
X173427028Y-109759819D01*
X173427028Y-109759819D02*
X173427028Y-109855057D01*
X172807981Y-110759819D02*
X172903219Y-110712200D01*
X172903219Y-110712200D02*
X172950838Y-110664580D01*
X172950838Y-110664580D02*
X172998457Y-110569342D01*
X172998457Y-110569342D02*
X172998457Y-110283628D01*
X172998457Y-110283628D02*
X172950838Y-110188390D01*
X172950838Y-110188390D02*
X172903219Y-110140771D01*
X172903219Y-110140771D02*
X172807981Y-110093152D01*
X172807981Y-110093152D02*
X172665124Y-110093152D01*
X172665124Y-110093152D02*
X172569886Y-110140771D01*
X172569886Y-110140771D02*
X172522267Y-110188390D01*
X172522267Y-110188390D02*
X172474648Y-110283628D01*
X172474648Y-110283628D02*
X172474648Y-110569342D01*
X172474648Y-110569342D02*
X172522267Y-110664580D01*
X172522267Y-110664580D02*
X172569886Y-110712200D01*
X172569886Y-110712200D02*
X172665124Y-110759819D01*
X172665124Y-110759819D02*
X172807981Y-110759819D01*
X172046076Y-110093152D02*
X172046076Y-110759819D01*
X172046076Y-110188390D02*
X171998457Y-110140771D01*
X171998457Y-110140771D02*
X171903219Y-110093152D01*
X171903219Y-110093152D02*
X171760362Y-110093152D01*
X171760362Y-110093152D02*
X171665124Y-110140771D01*
X171665124Y-110140771D02*
X171617505Y-110236009D01*
X171617505Y-110236009D02*
X171617505Y-110759819D01*
X171141314Y-110378866D02*
X170379410Y-110378866D01*
X169903219Y-110759819D02*
X169903219Y-109759819D01*
X169903219Y-109759819D02*
X169331791Y-110759819D01*
X169331791Y-110759819D02*
X169331791Y-109759819D01*
X168712743Y-110759819D02*
X168807981Y-110712200D01*
X168807981Y-110712200D02*
X168855600Y-110664580D01*
X168855600Y-110664580D02*
X168903219Y-110569342D01*
X168903219Y-110569342D02*
X168903219Y-110283628D01*
X168903219Y-110283628D02*
X168855600Y-110188390D01*
X168855600Y-110188390D02*
X168807981Y-110140771D01*
X168807981Y-110140771D02*
X168712743Y-110093152D01*
X168712743Y-110093152D02*
X168569886Y-110093152D01*
X168569886Y-110093152D02*
X168474648Y-110140771D01*
X168474648Y-110140771D02*
X168427029Y-110188390D01*
X168427029Y-110188390D02*
X168379410Y-110283628D01*
X168379410Y-110283628D02*
X168379410Y-110569342D01*
X168379410Y-110569342D02*
X168427029Y-110664580D01*
X168427029Y-110664580D02*
X168474648Y-110712200D01*
X168474648Y-110712200D02*
X168569886Y-110759819D01*
X168569886Y-110759819D02*
X168712743Y-110759819D01*
X167950838Y-110759819D02*
X167950838Y-109759819D01*
X167950838Y-109759819D02*
X167712743Y-109759819D01*
X167712743Y-109759819D02*
X167569886Y-109807438D01*
X167569886Y-109807438D02*
X167474648Y-109902676D01*
X167474648Y-109902676D02*
X167427029Y-109997914D01*
X167427029Y-109997914D02*
X167379410Y-110188390D01*
X167379410Y-110188390D02*
X167379410Y-110331247D01*
X167379410Y-110331247D02*
X167427029Y-110521723D01*
X167427029Y-110521723D02*
X167474648Y-110616961D01*
X167474648Y-110616961D02*
X167569886Y-110712200D01*
X167569886Y-110712200D02*
X167712743Y-110759819D01*
X167712743Y-110759819D02*
X167950838Y-110759819D01*
X166569886Y-110712200D02*
X166665124Y-110759819D01*
X166665124Y-110759819D02*
X166855600Y-110759819D01*
X166855600Y-110759819D02*
X166950838Y-110712200D01*
X166950838Y-110712200D02*
X166998457Y-110616961D01*
X166998457Y-110616961D02*
X166998457Y-110236009D01*
X166998457Y-110236009D02*
X166950838Y-110140771D01*
X166950838Y-110140771D02*
X166855600Y-110093152D01*
X166855600Y-110093152D02*
X166665124Y-110093152D01*
X166665124Y-110093152D02*
X166569886Y-110140771D01*
X166569886Y-110140771D02*
X166522267Y-110236009D01*
X166522267Y-110236009D02*
X166522267Y-110331247D01*
X166522267Y-110331247D02*
X166998457Y-110426485D01*
X166093695Y-110759819D02*
X166093695Y-110093152D01*
X166093695Y-110283628D02*
X166046076Y-110188390D01*
X166046076Y-110188390D02*
X165998457Y-110140771D01*
X165998457Y-110140771D02*
X165903219Y-110093152D01*
X165903219Y-110093152D02*
X165807981Y-110093152D01*
X165474647Y-110759819D02*
X165474647Y-110093152D01*
X165474647Y-109759819D02*
X165522266Y-109807438D01*
X165522266Y-109807438D02*
X165474647Y-109855057D01*
X165474647Y-109855057D02*
X165427028Y-109807438D01*
X165427028Y-109807438D02*
X165474647Y-109759819D01*
X165474647Y-109759819D02*
X165474647Y-109855057D01*
X165093695Y-110093152D02*
X164855600Y-110759819D01*
X164855600Y-110759819D02*
X164617505Y-110093152D01*
X163807981Y-110759819D02*
X163807981Y-110236009D01*
X163807981Y-110236009D02*
X163855600Y-110140771D01*
X163855600Y-110140771D02*
X163950838Y-110093152D01*
X163950838Y-110093152D02*
X164141314Y-110093152D01*
X164141314Y-110093152D02*
X164236552Y-110140771D01*
X163807981Y-110712200D02*
X163903219Y-110759819D01*
X163903219Y-110759819D02*
X164141314Y-110759819D01*
X164141314Y-110759819D02*
X164236552Y-110712200D01*
X164236552Y-110712200D02*
X164284171Y-110616961D01*
X164284171Y-110616961D02*
X164284171Y-110521723D01*
X164284171Y-110521723D02*
X164236552Y-110426485D01*
X164236552Y-110426485D02*
X164141314Y-110378866D01*
X164141314Y-110378866D02*
X163903219Y-110378866D01*
X163903219Y-110378866D02*
X163807981Y-110331247D01*
X163474647Y-110093152D02*
X163093695Y-110093152D01*
X163331790Y-109759819D02*
X163331790Y-110616961D01*
X163331790Y-110616961D02*
X163284171Y-110712200D01*
X163284171Y-110712200D02*
X163188933Y-110759819D01*
X163188933Y-110759819D02*
X163093695Y-110759819D01*
X162760361Y-110759819D02*
X162760361Y-110093152D01*
X162760361Y-109759819D02*
X162807980Y-109807438D01*
X162807980Y-109807438D02*
X162760361Y-109855057D01*
X162760361Y-109855057D02*
X162712742Y-109807438D01*
X162712742Y-109807438D02*
X162760361Y-109759819D01*
X162760361Y-109759819D02*
X162760361Y-109855057D01*
X162379409Y-110093152D02*
X162141314Y-110759819D01*
X162141314Y-110759819D02*
X161903219Y-110093152D01*
X161141314Y-110712200D02*
X161236552Y-110759819D01*
X161236552Y-110759819D02*
X161427028Y-110759819D01*
X161427028Y-110759819D02*
X161522266Y-110712200D01*
X161522266Y-110712200D02*
X161569885Y-110616961D01*
X161569885Y-110616961D02*
X161569885Y-110236009D01*
X161569885Y-110236009D02*
X161522266Y-110140771D01*
X161522266Y-110140771D02*
X161427028Y-110093152D01*
X161427028Y-110093152D02*
X161236552Y-110093152D01*
X161236552Y-110093152D02*
X161141314Y-110140771D01*
X161141314Y-110140771D02*
X161093695Y-110236009D01*
X161093695Y-110236009D02*
X161093695Y-110331247D01*
X161093695Y-110331247D02*
X161569885Y-110426485D01*
X160712742Y-110712200D02*
X160617504Y-110759819D01*
X160617504Y-110759819D02*
X160427028Y-110759819D01*
X160427028Y-110759819D02*
X160331790Y-110712200D01*
X160331790Y-110712200D02*
X160284171Y-110616961D01*
X160284171Y-110616961D02*
X160284171Y-110569342D01*
X160284171Y-110569342D02*
X160331790Y-110474104D01*
X160331790Y-110474104D02*
X160427028Y-110426485D01*
X160427028Y-110426485D02*
X160569885Y-110426485D01*
X160569885Y-110426485D02*
X160665123Y-110378866D01*
X160665123Y-110378866D02*
X160712742Y-110283628D01*
X160712742Y-110283628D02*
X160712742Y-110236009D01*
X160712742Y-110236009D02*
X160665123Y-110140771D01*
X160665123Y-110140771D02*
X160569885Y-110093152D01*
X160569885Y-110093152D02*
X160427028Y-110093152D01*
X160427028Y-110093152D02*
X160331790Y-110140771D01*
X158665123Y-110093152D02*
X158665123Y-110759819D01*
X158903218Y-109712200D02*
X159141313Y-110426485D01*
X159141313Y-110426485D02*
X158522266Y-110426485D01*
X158141313Y-110664580D02*
X158093694Y-110712200D01*
X158093694Y-110712200D02*
X158141313Y-110759819D01*
X158141313Y-110759819D02*
X158188932Y-110712200D01*
X158188932Y-110712200D02*
X158141313Y-110664580D01*
X158141313Y-110664580D02*
X158141313Y-110759819D01*
X157474647Y-109759819D02*
X157379409Y-109759819D01*
X157379409Y-109759819D02*
X157284171Y-109807438D01*
X157284171Y-109807438D02*
X157236552Y-109855057D01*
X157236552Y-109855057D02*
X157188933Y-109950295D01*
X157188933Y-109950295D02*
X157141314Y-110140771D01*
X157141314Y-110140771D02*
X157141314Y-110378866D01*
X157141314Y-110378866D02*
X157188933Y-110569342D01*
X157188933Y-110569342D02*
X157236552Y-110664580D01*
X157236552Y-110664580D02*
X157284171Y-110712200D01*
X157284171Y-110712200D02*
X157379409Y-110759819D01*
X157379409Y-110759819D02*
X157474647Y-110759819D01*
X157474647Y-110759819D02*
X157569885Y-110712200D01*
X157569885Y-110712200D02*
X157617504Y-110664580D01*
X157617504Y-110664580D02*
X157665123Y-110569342D01*
X157665123Y-110569342D02*
X157712742Y-110378866D01*
X157712742Y-110378866D02*
X157712742Y-110140771D01*
X157712742Y-110140771D02*
X157665123Y-109950295D01*
X157665123Y-109950295D02*
X157617504Y-109855057D01*
X157617504Y-109855057D02*
X157569885Y-109807438D01*
X157569885Y-109807438D02*
X157474647Y-109759819D01*
X155950837Y-110759819D02*
X155950837Y-109759819D01*
X155474647Y-110093152D02*
X155474647Y-110759819D01*
X155474647Y-110188390D02*
X155427028Y-110140771D01*
X155427028Y-110140771D02*
X155331790Y-110093152D01*
X155331790Y-110093152D02*
X155188933Y-110093152D01*
X155188933Y-110093152D02*
X155093695Y-110140771D01*
X155093695Y-110140771D02*
X155046076Y-110236009D01*
X155046076Y-110236009D02*
X155046076Y-110759819D01*
X154712742Y-110093152D02*
X154331790Y-110093152D01*
X154569885Y-109759819D02*
X154569885Y-110616961D01*
X154569885Y-110616961D02*
X154522266Y-110712200D01*
X154522266Y-110712200D02*
X154427028Y-110759819D01*
X154427028Y-110759819D02*
X154331790Y-110759819D01*
X153617504Y-110712200D02*
X153712742Y-110759819D01*
X153712742Y-110759819D02*
X153903218Y-110759819D01*
X153903218Y-110759819D02*
X153998456Y-110712200D01*
X153998456Y-110712200D02*
X154046075Y-110616961D01*
X154046075Y-110616961D02*
X154046075Y-110236009D01*
X154046075Y-110236009D02*
X153998456Y-110140771D01*
X153998456Y-110140771D02*
X153903218Y-110093152D01*
X153903218Y-110093152D02*
X153712742Y-110093152D01*
X153712742Y-110093152D02*
X153617504Y-110140771D01*
X153617504Y-110140771D02*
X153569885Y-110236009D01*
X153569885Y-110236009D02*
X153569885Y-110331247D01*
X153569885Y-110331247D02*
X154046075Y-110426485D01*
X153141313Y-110759819D02*
X153141313Y-110093152D01*
X153141313Y-110283628D02*
X153093694Y-110188390D01*
X153093694Y-110188390D02*
X153046075Y-110140771D01*
X153046075Y-110140771D02*
X152950837Y-110093152D01*
X152950837Y-110093152D02*
X152855599Y-110093152D01*
X152522265Y-110093152D02*
X152522265Y-110759819D01*
X152522265Y-110188390D02*
X152474646Y-110140771D01*
X152474646Y-110140771D02*
X152379408Y-110093152D01*
X152379408Y-110093152D02*
X152236551Y-110093152D01*
X152236551Y-110093152D02*
X152141313Y-110140771D01*
X152141313Y-110140771D02*
X152093694Y-110236009D01*
X152093694Y-110236009D02*
X152093694Y-110759819D01*
X151188932Y-110759819D02*
X151188932Y-110236009D01*
X151188932Y-110236009D02*
X151236551Y-110140771D01*
X151236551Y-110140771D02*
X151331789Y-110093152D01*
X151331789Y-110093152D02*
X151522265Y-110093152D01*
X151522265Y-110093152D02*
X151617503Y-110140771D01*
X151188932Y-110712200D02*
X151284170Y-110759819D01*
X151284170Y-110759819D02*
X151522265Y-110759819D01*
X151522265Y-110759819D02*
X151617503Y-110712200D01*
X151617503Y-110712200D02*
X151665122Y-110616961D01*
X151665122Y-110616961D02*
X151665122Y-110521723D01*
X151665122Y-110521723D02*
X151617503Y-110426485D01*
X151617503Y-110426485D02*
X151522265Y-110378866D01*
X151522265Y-110378866D02*
X151284170Y-110378866D01*
X151284170Y-110378866D02*
X151188932Y-110331247D01*
X150855598Y-110093152D02*
X150474646Y-110093152D01*
X150712741Y-109759819D02*
X150712741Y-110616961D01*
X150712741Y-110616961D02*
X150665122Y-110712200D01*
X150665122Y-110712200D02*
X150569884Y-110759819D01*
X150569884Y-110759819D02*
X150474646Y-110759819D01*
X150141312Y-110759819D02*
X150141312Y-110093152D01*
X150141312Y-109759819D02*
X150188931Y-109807438D01*
X150188931Y-109807438D02*
X150141312Y-109855057D01*
X150141312Y-109855057D02*
X150093693Y-109807438D01*
X150093693Y-109807438D02*
X150141312Y-109759819D01*
X150141312Y-109759819D02*
X150141312Y-109855057D01*
X149522265Y-110759819D02*
X149617503Y-110712200D01*
X149617503Y-110712200D02*
X149665122Y-110664580D01*
X149665122Y-110664580D02*
X149712741Y-110569342D01*
X149712741Y-110569342D02*
X149712741Y-110283628D01*
X149712741Y-110283628D02*
X149665122Y-110188390D01*
X149665122Y-110188390D02*
X149617503Y-110140771D01*
X149617503Y-110140771D02*
X149522265Y-110093152D01*
X149522265Y-110093152D02*
X149379408Y-110093152D01*
X149379408Y-110093152D02*
X149284170Y-110140771D01*
X149284170Y-110140771D02*
X149236551Y-110188390D01*
X149236551Y-110188390D02*
X149188932Y-110283628D01*
X149188932Y-110283628D02*
X149188932Y-110569342D01*
X149188932Y-110569342D02*
X149236551Y-110664580D01*
X149236551Y-110664580D02*
X149284170Y-110712200D01*
X149284170Y-110712200D02*
X149379408Y-110759819D01*
X149379408Y-110759819D02*
X149522265Y-110759819D01*
X148760360Y-110093152D02*
X148760360Y-110759819D01*
X148760360Y-110188390D02*
X148712741Y-110140771D01*
X148712741Y-110140771D02*
X148617503Y-110093152D01*
X148617503Y-110093152D02*
X148474646Y-110093152D01*
X148474646Y-110093152D02*
X148379408Y-110140771D01*
X148379408Y-110140771D02*
X148331789Y-110236009D01*
X148331789Y-110236009D02*
X148331789Y-110759819D01*
X147427027Y-110759819D02*
X147427027Y-110236009D01*
X147427027Y-110236009D02*
X147474646Y-110140771D01*
X147474646Y-110140771D02*
X147569884Y-110093152D01*
X147569884Y-110093152D02*
X147760360Y-110093152D01*
X147760360Y-110093152D02*
X147855598Y-110140771D01*
X147427027Y-110712200D02*
X147522265Y-110759819D01*
X147522265Y-110759819D02*
X147760360Y-110759819D01*
X147760360Y-110759819D02*
X147855598Y-110712200D01*
X147855598Y-110712200D02*
X147903217Y-110616961D01*
X147903217Y-110616961D02*
X147903217Y-110521723D01*
X147903217Y-110521723D02*
X147855598Y-110426485D01*
X147855598Y-110426485D02*
X147760360Y-110378866D01*
X147760360Y-110378866D02*
X147522265Y-110378866D01*
X147522265Y-110378866D02*
X147427027Y-110331247D01*
X146807979Y-110759819D02*
X146903217Y-110712200D01*
X146903217Y-110712200D02*
X146950836Y-110616961D01*
X146950836Y-110616961D02*
X146950836Y-109759819D01*
X164882133Y-105390000D02*
G75*
G02*
X161457867Y-105390000I-1712133J0D01*
G01*
X161457867Y-105390000D02*
G75*
G02*
X164882133Y-105390000I1712133J0D01*
G01*
X162600000Y-104915000D02*
X163680000Y-104915000D01*
X163680000Y-105835000D01*
X162600000Y-105835000D01*
X162600000Y-104915000D01*
G36*
X162600000Y-104915000D02*
G01*
X163680000Y-104915000D01*
X163680000Y-105835000D01*
X162600000Y-105835000D01*
X162600000Y-104915000D01*
G37*
X160372133Y-105370000D02*
G75*
G02*
X156947867Y-105370000I-1712133J0D01*
G01*
X156947867Y-105370000D02*
G75*
G02*
X160372133Y-105370000I1712133J0D01*
G01*
X169022133Y-105390000D02*
G75*
G02*
X165597867Y-105390000I-1712133J0D01*
G01*
X165597867Y-105390000D02*
G75*
G02*
X169022133Y-105390000I1712133J0D01*
G01*
D11*
X163421075Y-104350000D02*
G75*
G02*
X162978925Y-104350000I-221075J0D01*
G01*
X162978925Y-104350000D02*
G75*
G02*
X163421075Y-104350000I221075J0D01*
G01*
D10*
X162800000Y-105740000D02*
X163440000Y-105740000D01*
X163440000Y-106660000D01*
X162800000Y-106660000D01*
X162800000Y-105740000D01*
G36*
X162800000Y-105740000D02*
G01*
X163440000Y-105740000D01*
X163440000Y-106660000D01*
X162800000Y-106660000D01*
X162800000Y-105740000D01*
G37*
X169071429Y-108769580D02*
X169119048Y-108817200D01*
X169119048Y-108817200D02*
X169261905Y-108864819D01*
X169261905Y-108864819D02*
X169357143Y-108864819D01*
X169357143Y-108864819D02*
X169500000Y-108817200D01*
X169500000Y-108817200D02*
X169595238Y-108721961D01*
X169595238Y-108721961D02*
X169642857Y-108626723D01*
X169642857Y-108626723D02*
X169690476Y-108436247D01*
X169690476Y-108436247D02*
X169690476Y-108293390D01*
X169690476Y-108293390D02*
X169642857Y-108102914D01*
X169642857Y-108102914D02*
X169595238Y-108007676D01*
X169595238Y-108007676D02*
X169500000Y-107912438D01*
X169500000Y-107912438D02*
X169357143Y-107864819D01*
X169357143Y-107864819D02*
X169261905Y-107864819D01*
X169261905Y-107864819D02*
X169119048Y-107912438D01*
X169119048Y-107912438D02*
X169071429Y-107960057D01*
X168642857Y-108864819D02*
X168642857Y-108198152D01*
X168642857Y-108388628D02*
X168595238Y-108293390D01*
X168595238Y-108293390D02*
X168547619Y-108245771D01*
X168547619Y-108245771D02*
X168452381Y-108198152D01*
X168452381Y-108198152D02*
X168357143Y-108198152D01*
X167642857Y-108817200D02*
X167738095Y-108864819D01*
X167738095Y-108864819D02*
X167928571Y-108864819D01*
X167928571Y-108864819D02*
X168023809Y-108817200D01*
X168023809Y-108817200D02*
X168071428Y-108721961D01*
X168071428Y-108721961D02*
X168071428Y-108341009D01*
X168071428Y-108341009D02*
X168023809Y-108245771D01*
X168023809Y-108245771D02*
X167928571Y-108198152D01*
X167928571Y-108198152D02*
X167738095Y-108198152D01*
X167738095Y-108198152D02*
X167642857Y-108245771D01*
X167642857Y-108245771D02*
X167595238Y-108341009D01*
X167595238Y-108341009D02*
X167595238Y-108436247D01*
X167595238Y-108436247D02*
X168071428Y-108531485D01*
X166738095Y-108864819D02*
X166738095Y-108341009D01*
X166738095Y-108341009D02*
X166785714Y-108245771D01*
X166785714Y-108245771D02*
X166880952Y-108198152D01*
X166880952Y-108198152D02*
X167071428Y-108198152D01*
X167071428Y-108198152D02*
X167166666Y-108245771D01*
X166738095Y-108817200D02*
X166833333Y-108864819D01*
X166833333Y-108864819D02*
X167071428Y-108864819D01*
X167071428Y-108864819D02*
X167166666Y-108817200D01*
X167166666Y-108817200D02*
X167214285Y-108721961D01*
X167214285Y-108721961D02*
X167214285Y-108626723D01*
X167214285Y-108626723D02*
X167166666Y-108531485D01*
X167166666Y-108531485D02*
X167071428Y-108483866D01*
X167071428Y-108483866D02*
X166833333Y-108483866D01*
X166833333Y-108483866D02*
X166738095Y-108436247D01*
X166404761Y-108198152D02*
X166023809Y-108198152D01*
X166261904Y-107864819D02*
X166261904Y-108721961D01*
X166261904Y-108721961D02*
X166214285Y-108817200D01*
X166214285Y-108817200D02*
X166119047Y-108864819D01*
X166119047Y-108864819D02*
X166023809Y-108864819D01*
X165690475Y-108864819D02*
X165690475Y-108198152D01*
X165690475Y-107864819D02*
X165738094Y-107912438D01*
X165738094Y-107912438D02*
X165690475Y-107960057D01*
X165690475Y-107960057D02*
X165642856Y-107912438D01*
X165642856Y-107912438D02*
X165690475Y-107864819D01*
X165690475Y-107864819D02*
X165690475Y-107960057D01*
X165309523Y-108198152D02*
X165071428Y-108864819D01*
X165071428Y-108864819D02*
X164833333Y-108198152D01*
X164071428Y-108817200D02*
X164166666Y-108864819D01*
X164166666Y-108864819D02*
X164357142Y-108864819D01*
X164357142Y-108864819D02*
X164452380Y-108817200D01*
X164452380Y-108817200D02*
X164499999Y-108721961D01*
X164499999Y-108721961D02*
X164499999Y-108341009D01*
X164499999Y-108341009D02*
X164452380Y-108245771D01*
X164452380Y-108245771D02*
X164357142Y-108198152D01*
X164357142Y-108198152D02*
X164166666Y-108198152D01*
X164166666Y-108198152D02*
X164071428Y-108245771D01*
X164071428Y-108245771D02*
X164023809Y-108341009D01*
X164023809Y-108341009D02*
X164023809Y-108436247D01*
X164023809Y-108436247D02*
X164499999Y-108531485D01*
X162261904Y-108769580D02*
X162309523Y-108817200D01*
X162309523Y-108817200D02*
X162452380Y-108864819D01*
X162452380Y-108864819D02*
X162547618Y-108864819D01*
X162547618Y-108864819D02*
X162690475Y-108817200D01*
X162690475Y-108817200D02*
X162785713Y-108721961D01*
X162785713Y-108721961D02*
X162833332Y-108626723D01*
X162833332Y-108626723D02*
X162880951Y-108436247D01*
X162880951Y-108436247D02*
X162880951Y-108293390D01*
X162880951Y-108293390D02*
X162833332Y-108102914D01*
X162833332Y-108102914D02*
X162785713Y-108007676D01*
X162785713Y-108007676D02*
X162690475Y-107912438D01*
X162690475Y-107912438D02*
X162547618Y-107864819D01*
X162547618Y-107864819D02*
X162452380Y-107864819D01*
X162452380Y-107864819D02*
X162309523Y-107912438D01*
X162309523Y-107912438D02*
X162261904Y-107960057D01*
X161690475Y-108864819D02*
X161785713Y-108817200D01*
X161785713Y-108817200D02*
X161833332Y-108769580D01*
X161833332Y-108769580D02*
X161880951Y-108674342D01*
X161880951Y-108674342D02*
X161880951Y-108388628D01*
X161880951Y-108388628D02*
X161833332Y-108293390D01*
X161833332Y-108293390D02*
X161785713Y-108245771D01*
X161785713Y-108245771D02*
X161690475Y-108198152D01*
X161690475Y-108198152D02*
X161547618Y-108198152D01*
X161547618Y-108198152D02*
X161452380Y-108245771D01*
X161452380Y-108245771D02*
X161404761Y-108293390D01*
X161404761Y-108293390D02*
X161357142Y-108388628D01*
X161357142Y-108388628D02*
X161357142Y-108674342D01*
X161357142Y-108674342D02*
X161404761Y-108769580D01*
X161404761Y-108769580D02*
X161452380Y-108817200D01*
X161452380Y-108817200D02*
X161547618Y-108864819D01*
X161547618Y-108864819D02*
X161690475Y-108864819D01*
X160928570Y-108864819D02*
X160928570Y-108198152D01*
X160928570Y-108293390D02*
X160880951Y-108245771D01*
X160880951Y-108245771D02*
X160785713Y-108198152D01*
X160785713Y-108198152D02*
X160642856Y-108198152D01*
X160642856Y-108198152D02*
X160547618Y-108245771D01*
X160547618Y-108245771D02*
X160499999Y-108341009D01*
X160499999Y-108341009D02*
X160499999Y-108864819D01*
X160499999Y-108341009D02*
X160452380Y-108245771D01*
X160452380Y-108245771D02*
X160357142Y-108198152D01*
X160357142Y-108198152D02*
X160214285Y-108198152D01*
X160214285Y-108198152D02*
X160119046Y-108245771D01*
X160119046Y-108245771D02*
X160071427Y-108341009D01*
X160071427Y-108341009D02*
X160071427Y-108864819D01*
X159595237Y-108864819D02*
X159595237Y-108198152D01*
X159595237Y-108293390D02*
X159547618Y-108245771D01*
X159547618Y-108245771D02*
X159452380Y-108198152D01*
X159452380Y-108198152D02*
X159309523Y-108198152D01*
X159309523Y-108198152D02*
X159214285Y-108245771D01*
X159214285Y-108245771D02*
X159166666Y-108341009D01*
X159166666Y-108341009D02*
X159166666Y-108864819D01*
X159166666Y-108341009D02*
X159119047Y-108245771D01*
X159119047Y-108245771D02*
X159023809Y-108198152D01*
X159023809Y-108198152D02*
X158880952Y-108198152D01*
X158880952Y-108198152D02*
X158785713Y-108245771D01*
X158785713Y-108245771D02*
X158738094Y-108341009D01*
X158738094Y-108341009D02*
X158738094Y-108864819D01*
X158119047Y-108864819D02*
X158214285Y-108817200D01*
X158214285Y-108817200D02*
X158261904Y-108769580D01*
X158261904Y-108769580D02*
X158309523Y-108674342D01*
X158309523Y-108674342D02*
X158309523Y-108388628D01*
X158309523Y-108388628D02*
X158261904Y-108293390D01*
X158261904Y-108293390D02*
X158214285Y-108245771D01*
X158214285Y-108245771D02*
X158119047Y-108198152D01*
X158119047Y-108198152D02*
X157976190Y-108198152D01*
X157976190Y-108198152D02*
X157880952Y-108245771D01*
X157880952Y-108245771D02*
X157833333Y-108293390D01*
X157833333Y-108293390D02*
X157785714Y-108388628D01*
X157785714Y-108388628D02*
X157785714Y-108674342D01*
X157785714Y-108674342D02*
X157833333Y-108769580D01*
X157833333Y-108769580D02*
X157880952Y-108817200D01*
X157880952Y-108817200D02*
X157976190Y-108864819D01*
X157976190Y-108864819D02*
X158119047Y-108864819D01*
X157357142Y-108198152D02*
X157357142Y-108864819D01*
X157357142Y-108293390D02*
X157309523Y-108245771D01*
X157309523Y-108245771D02*
X157214285Y-108198152D01*
X157214285Y-108198152D02*
X157071428Y-108198152D01*
X157071428Y-108198152D02*
X156976190Y-108245771D01*
X156976190Y-108245771D02*
X156928571Y-108341009D01*
X156928571Y-108341009D02*
X156928571Y-108864819D01*
X156499999Y-108817200D02*
X156404761Y-108864819D01*
X156404761Y-108864819D02*
X156214285Y-108864819D01*
X156214285Y-108864819D02*
X156119047Y-108817200D01*
X156119047Y-108817200D02*
X156071428Y-108721961D01*
X156071428Y-108721961D02*
X156071428Y-108674342D01*
X156071428Y-108674342D02*
X156119047Y-108579104D01*
X156119047Y-108579104D02*
X156214285Y-108531485D01*
X156214285Y-108531485D02*
X156357142Y-108531485D01*
X156357142Y-108531485D02*
X156452380Y-108483866D01*
X156452380Y-108483866D02*
X156499999Y-108388628D01*
X156499999Y-108388628D02*
X156499999Y-108341009D01*
X156499999Y-108341009D02*
X156452380Y-108245771D01*
X156452380Y-108245771D02*
X156357142Y-108198152D01*
X156357142Y-108198152D02*
X156214285Y-108198152D01*
X156214285Y-108198152D02*
X156119047Y-108245771D01*
X180492857Y-63287438D02*
X179350000Y-63287438D01*
X179921429Y-65287438D02*
X179921429Y-63287438D01*
X178683333Y-65287438D02*
X178683333Y-63287438D01*
X178683333Y-64239819D02*
X177540476Y-64239819D01*
X177540476Y-65287438D02*
X177540476Y-63287438D01*
X176588095Y-65287438D02*
X176588095Y-63287438D01*
X175730952Y-65192200D02*
X175445238Y-65287438D01*
X175445238Y-65287438D02*
X174969047Y-65287438D01*
X174969047Y-65287438D02*
X174778571Y-65192200D01*
X174778571Y-65192200D02*
X174683333Y-65096961D01*
X174683333Y-65096961D02*
X174588095Y-64906485D01*
X174588095Y-64906485D02*
X174588095Y-64716009D01*
X174588095Y-64716009D02*
X174683333Y-64525533D01*
X174683333Y-64525533D02*
X174778571Y-64430295D01*
X174778571Y-64430295D02*
X174969047Y-64335057D01*
X174969047Y-64335057D02*
X175350000Y-64239819D01*
X175350000Y-64239819D02*
X175540476Y-64144580D01*
X175540476Y-64144580D02*
X175635714Y-64049342D01*
X175635714Y-64049342D02*
X175730952Y-63858866D01*
X175730952Y-63858866D02*
X175730952Y-63668390D01*
X175730952Y-63668390D02*
X175635714Y-63477914D01*
X175635714Y-63477914D02*
X175540476Y-63382676D01*
X175540476Y-63382676D02*
X175350000Y-63287438D01*
X175350000Y-63287438D02*
X174873809Y-63287438D01*
X174873809Y-63287438D02*
X174588095Y-63382676D01*
X172302380Y-65192200D02*
X172016666Y-65287438D01*
X172016666Y-65287438D02*
X171540475Y-65287438D01*
X171540475Y-65287438D02*
X171349999Y-65192200D01*
X171349999Y-65192200D02*
X171254761Y-65096961D01*
X171254761Y-65096961D02*
X171159523Y-64906485D01*
X171159523Y-64906485D02*
X171159523Y-64716009D01*
X171159523Y-64716009D02*
X171254761Y-64525533D01*
X171254761Y-64525533D02*
X171349999Y-64430295D01*
X171349999Y-64430295D02*
X171540475Y-64335057D01*
X171540475Y-64335057D02*
X171921428Y-64239819D01*
X171921428Y-64239819D02*
X172111904Y-64144580D01*
X172111904Y-64144580D02*
X172207142Y-64049342D01*
X172207142Y-64049342D02*
X172302380Y-63858866D01*
X172302380Y-63858866D02*
X172302380Y-63668390D01*
X172302380Y-63668390D02*
X172207142Y-63477914D01*
X172207142Y-63477914D02*
X172111904Y-63382676D01*
X172111904Y-63382676D02*
X171921428Y-63287438D01*
X171921428Y-63287438D02*
X171445237Y-63287438D01*
X171445237Y-63287438D02*
X171159523Y-63382676D01*
X170302380Y-65287438D02*
X170302380Y-63287438D01*
X169349999Y-65287438D02*
X169349999Y-63287438D01*
X169349999Y-63287438D02*
X168873809Y-63287438D01*
X168873809Y-63287438D02*
X168588094Y-63382676D01*
X168588094Y-63382676D02*
X168397618Y-63573152D01*
X168397618Y-63573152D02*
X168302380Y-63763628D01*
X168302380Y-63763628D02*
X168207142Y-64144580D01*
X168207142Y-64144580D02*
X168207142Y-64430295D01*
X168207142Y-64430295D02*
X168302380Y-64811247D01*
X168302380Y-64811247D02*
X168397618Y-65001723D01*
X168397618Y-65001723D02*
X168588094Y-65192200D01*
X168588094Y-65192200D02*
X168873809Y-65287438D01*
X168873809Y-65287438D02*
X169349999Y-65287438D01*
X167349999Y-64239819D02*
X166683332Y-64239819D01*
X166397618Y-65287438D02*
X167349999Y-65287438D01*
X167349999Y-65287438D02*
X167349999Y-63287438D01*
X167349999Y-63287438D02*
X166397618Y-63287438D01*
X164016665Y-65287438D02*
X164016665Y-63287438D01*
X164016665Y-63287438D02*
X163540475Y-63287438D01*
X163540475Y-63287438D02*
X163254760Y-63382676D01*
X163254760Y-63382676D02*
X163064284Y-63573152D01*
X163064284Y-63573152D02*
X162969046Y-63763628D01*
X162969046Y-63763628D02*
X162873808Y-64144580D01*
X162873808Y-64144580D02*
X162873808Y-64430295D01*
X162873808Y-64430295D02*
X162969046Y-64811247D01*
X162969046Y-64811247D02*
X163064284Y-65001723D01*
X163064284Y-65001723D02*
X163254760Y-65192200D01*
X163254760Y-65192200D02*
X163540475Y-65287438D01*
X163540475Y-65287438D02*
X164016665Y-65287438D01*
X161635713Y-63287438D02*
X161254760Y-63287438D01*
X161254760Y-63287438D02*
X161064284Y-63382676D01*
X161064284Y-63382676D02*
X160873808Y-63573152D01*
X160873808Y-63573152D02*
X160778570Y-63954104D01*
X160778570Y-63954104D02*
X160778570Y-64620771D01*
X160778570Y-64620771D02*
X160873808Y-65001723D01*
X160873808Y-65001723D02*
X161064284Y-65192200D01*
X161064284Y-65192200D02*
X161254760Y-65287438D01*
X161254760Y-65287438D02*
X161635713Y-65287438D01*
X161635713Y-65287438D02*
X161826189Y-65192200D01*
X161826189Y-65192200D02*
X162016665Y-65001723D01*
X162016665Y-65001723D02*
X162111903Y-64620771D01*
X162111903Y-64620771D02*
X162111903Y-63954104D01*
X162111903Y-63954104D02*
X162016665Y-63573152D01*
X162016665Y-63573152D02*
X161826189Y-63382676D01*
X161826189Y-63382676D02*
X161635713Y-63287438D01*
X160111903Y-63287438D02*
X159635713Y-65287438D01*
X159635713Y-65287438D02*
X159254760Y-63858866D01*
X159254760Y-63858866D02*
X158873808Y-65287438D01*
X158873808Y-65287438D02*
X158397618Y-63287438D01*
X157635713Y-65287438D02*
X157635713Y-63287438D01*
X157635713Y-63287438D02*
X156492856Y-65287438D01*
X156492856Y-65287438D02*
X156492856Y-63287438D01*
X167774285Y-102849580D02*
X167821904Y-102897200D01*
X167821904Y-102897200D02*
X167964761Y-102944819D01*
X167964761Y-102944819D02*
X168059999Y-102944819D01*
X168059999Y-102944819D02*
X168202856Y-102897200D01*
X168202856Y-102897200D02*
X168298094Y-102801961D01*
X168298094Y-102801961D02*
X168345713Y-102706723D01*
X168345713Y-102706723D02*
X168393332Y-102516247D01*
X168393332Y-102516247D02*
X168393332Y-102373390D01*
X168393332Y-102373390D02*
X168345713Y-102182914D01*
X168345713Y-102182914D02*
X168298094Y-102087676D01*
X168298094Y-102087676D02*
X168202856Y-101992438D01*
X168202856Y-101992438D02*
X168059999Y-101944819D01*
X168059999Y-101944819D02*
X167964761Y-101944819D01*
X167964761Y-101944819D02*
X167821904Y-101992438D01*
X167821904Y-101992438D02*
X167774285Y-102040057D01*
X166774285Y-102849580D02*
X166821904Y-102897200D01*
X166821904Y-102897200D02*
X166964761Y-102944819D01*
X166964761Y-102944819D02*
X167059999Y-102944819D01*
X167059999Y-102944819D02*
X167202856Y-102897200D01*
X167202856Y-102897200D02*
X167298094Y-102801961D01*
X167298094Y-102801961D02*
X167345713Y-102706723D01*
X167345713Y-102706723D02*
X167393332Y-102516247D01*
X167393332Y-102516247D02*
X167393332Y-102373390D01*
X167393332Y-102373390D02*
X167345713Y-102182914D01*
X167345713Y-102182914D02*
X167298094Y-102087676D01*
X167298094Y-102087676D02*
X167202856Y-101992438D01*
X167202856Y-101992438D02*
X167059999Y-101944819D01*
X167059999Y-101944819D02*
X166964761Y-101944819D01*
X166964761Y-101944819D02*
X166821904Y-101992438D01*
X166821904Y-101992438D02*
X166774285Y-102040057D01*
X165250475Y-102421009D02*
X165107618Y-102468628D01*
X165107618Y-102468628D02*
X165059999Y-102516247D01*
X165059999Y-102516247D02*
X165012380Y-102611485D01*
X165012380Y-102611485D02*
X165012380Y-102754342D01*
X165012380Y-102754342D02*
X165059999Y-102849580D01*
X165059999Y-102849580D02*
X165107618Y-102897200D01*
X165107618Y-102897200D02*
X165202856Y-102944819D01*
X165202856Y-102944819D02*
X165583808Y-102944819D01*
X165583808Y-102944819D02*
X165583808Y-101944819D01*
X165583808Y-101944819D02*
X165250475Y-101944819D01*
X165250475Y-101944819D02*
X165155237Y-101992438D01*
X165155237Y-101992438D02*
X165107618Y-102040057D01*
X165107618Y-102040057D02*
X165059999Y-102135295D01*
X165059999Y-102135295D02*
X165059999Y-102230533D01*
X165059999Y-102230533D02*
X165107618Y-102325771D01*
X165107618Y-102325771D02*
X165155237Y-102373390D01*
X165155237Y-102373390D02*
X165250475Y-102421009D01*
X165250475Y-102421009D02*
X165583808Y-102421009D01*
X164393332Y-102468628D02*
X164393332Y-102944819D01*
X164726665Y-101944819D02*
X164393332Y-102468628D01*
X164393332Y-102468628D02*
X164059999Y-101944819D01*
X163726665Y-102563866D02*
X162964761Y-102563866D01*
X162488570Y-102944819D02*
X162488570Y-101944819D01*
X162488570Y-101944819D02*
X161917142Y-102944819D01*
X161917142Y-102944819D02*
X161917142Y-101944819D01*
X161440951Y-102944819D02*
X161440951Y-101944819D01*
X161440951Y-101944819D02*
X161202856Y-101944819D01*
X161202856Y-101944819D02*
X161059999Y-101992438D01*
X161059999Y-101992438D02*
X160964761Y-102087676D01*
X160964761Y-102087676D02*
X160917142Y-102182914D01*
X160917142Y-102182914D02*
X160869523Y-102373390D01*
X160869523Y-102373390D02*
X160869523Y-102516247D01*
X160869523Y-102516247D02*
X160917142Y-102706723D01*
X160917142Y-102706723D02*
X160964761Y-102801961D01*
X160964761Y-102801961D02*
X161059999Y-102897200D01*
X161059999Y-102897200D02*
X161202856Y-102944819D01*
X161202856Y-102944819D02*
X161440951Y-102944819D01*
X159250475Y-102278152D02*
X159250475Y-102944819D01*
X159488570Y-101897200D02*
X159726665Y-102611485D01*
X159726665Y-102611485D02*
X159107618Y-102611485D01*
X158726665Y-102849580D02*
X158679046Y-102897200D01*
X158679046Y-102897200D02*
X158726665Y-102944819D01*
X158726665Y-102944819D02*
X158774284Y-102897200D01*
X158774284Y-102897200D02*
X158726665Y-102849580D01*
X158726665Y-102849580D02*
X158726665Y-102944819D01*
X158059999Y-101944819D02*
X157964761Y-101944819D01*
X157964761Y-101944819D02*
X157869523Y-101992438D01*
X157869523Y-101992438D02*
X157821904Y-102040057D01*
X157821904Y-102040057D02*
X157774285Y-102135295D01*
X157774285Y-102135295D02*
X157726666Y-102325771D01*
X157726666Y-102325771D02*
X157726666Y-102563866D01*
X157726666Y-102563866D02*
X157774285Y-102754342D01*
X157774285Y-102754342D02*
X157821904Y-102849580D01*
X157821904Y-102849580D02*
X157869523Y-102897200D01*
X157869523Y-102897200D02*
X157964761Y-102944819D01*
X157964761Y-102944819D02*
X158059999Y-102944819D01*
X158059999Y-102944819D02*
X158155237Y-102897200D01*
X158155237Y-102897200D02*
X158202856Y-102849580D01*
X158202856Y-102849580D02*
X158250475Y-102754342D01*
X158250475Y-102754342D02*
X158298094Y-102563866D01*
X158298094Y-102563866D02*
X158298094Y-102325771D01*
X158298094Y-102325771D02*
X158250475Y-102135295D01*
X158250475Y-102135295D02*
X158202856Y-102040057D01*
X158202856Y-102040057D02*
X158155237Y-101992438D01*
X158155237Y-101992438D02*
X158059999Y-101944819D01*
X167500476Y-105749580D02*
X167548095Y-105797200D01*
X167548095Y-105797200D02*
X167690952Y-105844819D01*
X167690952Y-105844819D02*
X167786190Y-105844819D01*
X167786190Y-105844819D02*
X167929047Y-105797200D01*
X167929047Y-105797200D02*
X168024285Y-105701961D01*
X168024285Y-105701961D02*
X168071904Y-105606723D01*
X168071904Y-105606723D02*
X168119523Y-105416247D01*
X168119523Y-105416247D02*
X168119523Y-105273390D01*
X168119523Y-105273390D02*
X168071904Y-105082914D01*
X168071904Y-105082914D02*
X168024285Y-104987676D01*
X168024285Y-104987676D02*
X167929047Y-104892438D01*
X167929047Y-104892438D02*
X167786190Y-104844819D01*
X167786190Y-104844819D02*
X167690952Y-104844819D01*
X167690952Y-104844819D02*
X167548095Y-104892438D01*
X167548095Y-104892438D02*
X167500476Y-104940057D01*
X166500476Y-105749580D02*
X166548095Y-105797200D01*
X166548095Y-105797200D02*
X166690952Y-105844819D01*
X166690952Y-105844819D02*
X166786190Y-105844819D01*
X166786190Y-105844819D02*
X166929047Y-105797200D01*
X166929047Y-105797200D02*
X167024285Y-105701961D01*
X167024285Y-105701961D02*
X167071904Y-105606723D01*
X167071904Y-105606723D02*
X167119523Y-105416247D01*
X167119523Y-105416247D02*
X167119523Y-105273390D01*
X167119523Y-105273390D02*
X167071904Y-105082914D01*
X167071904Y-105082914D02*
X167024285Y-104987676D01*
X167024285Y-104987676D02*
X166929047Y-104892438D01*
X166929047Y-104892438D02*
X166786190Y-104844819D01*
X166786190Y-104844819D02*
X166690952Y-104844819D01*
X166690952Y-104844819D02*
X166548095Y-104892438D01*
X166548095Y-104892438D02*
X166500476Y-104940057D01*
X159421904Y-105239819D02*
X157898095Y-105239819D01*
X157898095Y-105811247D02*
X159421904Y-105811247D01*
X173573220Y-100689819D02*
X173573220Y-99689819D01*
X173144649Y-100689819D02*
X173144649Y-100166009D01*
X173144649Y-100166009D02*
X173192268Y-100070771D01*
X173192268Y-100070771D02*
X173287506Y-100023152D01*
X173287506Y-100023152D02*
X173430363Y-100023152D01*
X173430363Y-100023152D02*
X173525601Y-100070771D01*
X173525601Y-100070771D02*
X173573220Y-100118390D01*
X172811315Y-100023152D02*
X172430363Y-100023152D01*
X172668458Y-99689819D02*
X172668458Y-100546961D01*
X172668458Y-100546961D02*
X172620839Y-100642200D01*
X172620839Y-100642200D02*
X172525601Y-100689819D01*
X172525601Y-100689819D02*
X172430363Y-100689819D01*
X172239886Y-100023152D02*
X171858934Y-100023152D01*
X172097029Y-99689819D02*
X172097029Y-100546961D01*
X172097029Y-100546961D02*
X172049410Y-100642200D01*
X172049410Y-100642200D02*
X171954172Y-100689819D01*
X171954172Y-100689819D02*
X171858934Y-100689819D01*
X171525600Y-100023152D02*
X171525600Y-101023152D01*
X171525600Y-100070771D02*
X171430362Y-100023152D01*
X171430362Y-100023152D02*
X171239886Y-100023152D01*
X171239886Y-100023152D02*
X171144648Y-100070771D01*
X171144648Y-100070771D02*
X171097029Y-100118390D01*
X171097029Y-100118390D02*
X171049410Y-100213628D01*
X171049410Y-100213628D02*
X171049410Y-100499342D01*
X171049410Y-100499342D02*
X171097029Y-100594580D01*
X171097029Y-100594580D02*
X171144648Y-100642200D01*
X171144648Y-100642200D02*
X171239886Y-100689819D01*
X171239886Y-100689819D02*
X171430362Y-100689819D01*
X171430362Y-100689819D02*
X171525600Y-100642200D01*
X170668457Y-100642200D02*
X170573219Y-100689819D01*
X170573219Y-100689819D02*
X170382743Y-100689819D01*
X170382743Y-100689819D02*
X170287505Y-100642200D01*
X170287505Y-100642200D02*
X170239886Y-100546961D01*
X170239886Y-100546961D02*
X170239886Y-100499342D01*
X170239886Y-100499342D02*
X170287505Y-100404104D01*
X170287505Y-100404104D02*
X170382743Y-100356485D01*
X170382743Y-100356485D02*
X170525600Y-100356485D01*
X170525600Y-100356485D02*
X170620838Y-100308866D01*
X170620838Y-100308866D02*
X170668457Y-100213628D01*
X170668457Y-100213628D02*
X170668457Y-100166009D01*
X170668457Y-100166009D02*
X170620838Y-100070771D01*
X170620838Y-100070771D02*
X170525600Y-100023152D01*
X170525600Y-100023152D02*
X170382743Y-100023152D01*
X170382743Y-100023152D02*
X170287505Y-100070771D01*
X169811314Y-100594580D02*
X169763695Y-100642200D01*
X169763695Y-100642200D02*
X169811314Y-100689819D01*
X169811314Y-100689819D02*
X169858933Y-100642200D01*
X169858933Y-100642200D02*
X169811314Y-100594580D01*
X169811314Y-100594580D02*
X169811314Y-100689819D01*
X169811314Y-100070771D02*
X169763695Y-100118390D01*
X169763695Y-100118390D02*
X169811314Y-100166009D01*
X169811314Y-100166009D02*
X169858933Y-100118390D01*
X169858933Y-100118390D02*
X169811314Y-100070771D01*
X169811314Y-100070771D02*
X169811314Y-100166009D01*
X168620839Y-99642200D02*
X169477981Y-100927914D01*
X167573220Y-99642200D02*
X168430362Y-100927914D01*
X167239886Y-100689819D02*
X167239886Y-99689819D01*
X166811315Y-100689819D02*
X166811315Y-100166009D01*
X166811315Y-100166009D02*
X166858934Y-100070771D01*
X166858934Y-100070771D02*
X166954172Y-100023152D01*
X166954172Y-100023152D02*
X167097029Y-100023152D01*
X167097029Y-100023152D02*
X167192267Y-100070771D01*
X167192267Y-100070771D02*
X167239886Y-100118390D01*
X166192267Y-100689819D02*
X166287505Y-100642200D01*
X166287505Y-100642200D02*
X166335124Y-100594580D01*
X166335124Y-100594580D02*
X166382743Y-100499342D01*
X166382743Y-100499342D02*
X166382743Y-100213628D01*
X166382743Y-100213628D02*
X166335124Y-100118390D01*
X166335124Y-100118390D02*
X166287505Y-100070771D01*
X166287505Y-100070771D02*
X166192267Y-100023152D01*
X166192267Y-100023152D02*
X166049410Y-100023152D01*
X166049410Y-100023152D02*
X165954172Y-100070771D01*
X165954172Y-100070771D02*
X165906553Y-100118390D01*
X165906553Y-100118390D02*
X165858934Y-100213628D01*
X165858934Y-100213628D02*
X165858934Y-100499342D01*
X165858934Y-100499342D02*
X165906553Y-100594580D01*
X165906553Y-100594580D02*
X165954172Y-100642200D01*
X165954172Y-100642200D02*
X166049410Y-100689819D01*
X166049410Y-100689819D02*
X166192267Y-100689819D01*
X165430362Y-100689819D02*
X165430362Y-100023152D01*
X165430362Y-100118390D02*
X165382743Y-100070771D01*
X165382743Y-100070771D02*
X165287505Y-100023152D01*
X165287505Y-100023152D02*
X165144648Y-100023152D01*
X165144648Y-100023152D02*
X165049410Y-100070771D01*
X165049410Y-100070771D02*
X165001791Y-100166009D01*
X165001791Y-100166009D02*
X165001791Y-100689819D01*
X165001791Y-100166009D02*
X164954172Y-100070771D01*
X164954172Y-100070771D02*
X164858934Y-100023152D01*
X164858934Y-100023152D02*
X164716077Y-100023152D01*
X164716077Y-100023152D02*
X164620838Y-100070771D01*
X164620838Y-100070771D02*
X164573219Y-100166009D01*
X164573219Y-100166009D02*
X164573219Y-100689819D01*
X163716077Y-100642200D02*
X163811315Y-100689819D01*
X163811315Y-100689819D02*
X164001791Y-100689819D01*
X164001791Y-100689819D02*
X164097029Y-100642200D01*
X164097029Y-100642200D02*
X164144648Y-100546961D01*
X164144648Y-100546961D02*
X164144648Y-100166009D01*
X164144648Y-100166009D02*
X164097029Y-100070771D01*
X164097029Y-100070771D02*
X164001791Y-100023152D01*
X164001791Y-100023152D02*
X163811315Y-100023152D01*
X163811315Y-100023152D02*
X163716077Y-100070771D01*
X163716077Y-100070771D02*
X163668458Y-100166009D01*
X163668458Y-100166009D02*
X163668458Y-100261247D01*
X163668458Y-100261247D02*
X164144648Y-100356485D01*
X162811315Y-100642200D02*
X162906553Y-100689819D01*
X162906553Y-100689819D02*
X163097029Y-100689819D01*
X163097029Y-100689819D02*
X163192267Y-100642200D01*
X163192267Y-100642200D02*
X163239886Y-100594580D01*
X163239886Y-100594580D02*
X163287505Y-100499342D01*
X163287505Y-100499342D02*
X163287505Y-100213628D01*
X163287505Y-100213628D02*
X163239886Y-100118390D01*
X163239886Y-100118390D02*
X163192267Y-100070771D01*
X163192267Y-100070771D02*
X163097029Y-100023152D01*
X163097029Y-100023152D02*
X162906553Y-100023152D01*
X162906553Y-100023152D02*
X162811315Y-100070771D01*
X162239886Y-100689819D02*
X162335124Y-100642200D01*
X162335124Y-100642200D02*
X162382743Y-100594580D01*
X162382743Y-100594580D02*
X162430362Y-100499342D01*
X162430362Y-100499342D02*
X162430362Y-100213628D01*
X162430362Y-100213628D02*
X162382743Y-100118390D01*
X162382743Y-100118390D02*
X162335124Y-100070771D01*
X162335124Y-100070771D02*
X162239886Y-100023152D01*
X162239886Y-100023152D02*
X162097029Y-100023152D01*
X162097029Y-100023152D02*
X162001791Y-100070771D01*
X162001791Y-100070771D02*
X161954172Y-100118390D01*
X161954172Y-100118390D02*
X161906553Y-100213628D01*
X161906553Y-100213628D02*
X161906553Y-100499342D01*
X161906553Y-100499342D02*
X161954172Y-100594580D01*
X161954172Y-100594580D02*
X162001791Y-100642200D01*
X162001791Y-100642200D02*
X162097029Y-100689819D01*
X162097029Y-100689819D02*
X162239886Y-100689819D01*
X161477981Y-100689819D02*
X161477981Y-100023152D01*
X161477981Y-100118390D02*
X161430362Y-100070771D01*
X161430362Y-100070771D02*
X161335124Y-100023152D01*
X161335124Y-100023152D02*
X161192267Y-100023152D01*
X161192267Y-100023152D02*
X161097029Y-100070771D01*
X161097029Y-100070771D02*
X161049410Y-100166009D01*
X161049410Y-100166009D02*
X161049410Y-100689819D01*
X161049410Y-100166009D02*
X161001791Y-100070771D01*
X161001791Y-100070771D02*
X160906553Y-100023152D01*
X160906553Y-100023152D02*
X160763696Y-100023152D01*
X160763696Y-100023152D02*
X160668457Y-100070771D01*
X160668457Y-100070771D02*
X160620838Y-100166009D01*
X160620838Y-100166009D02*
X160620838Y-100689819D01*
X160144648Y-100023152D02*
X160144648Y-101023152D01*
X160144648Y-100070771D02*
X160049410Y-100023152D01*
X160049410Y-100023152D02*
X159858934Y-100023152D01*
X159858934Y-100023152D02*
X159763696Y-100070771D01*
X159763696Y-100070771D02*
X159716077Y-100118390D01*
X159716077Y-100118390D02*
X159668458Y-100213628D01*
X159668458Y-100213628D02*
X159668458Y-100499342D01*
X159668458Y-100499342D02*
X159716077Y-100594580D01*
X159716077Y-100594580D02*
X159763696Y-100642200D01*
X159763696Y-100642200D02*
X159858934Y-100689819D01*
X159858934Y-100689819D02*
X160049410Y-100689819D01*
X160049410Y-100689819D02*
X160144648Y-100642200D01*
X158811315Y-100023152D02*
X158811315Y-100689819D01*
X159239886Y-100023152D02*
X159239886Y-100546961D01*
X159239886Y-100546961D02*
X159192267Y-100642200D01*
X159192267Y-100642200D02*
X159097029Y-100689819D01*
X159097029Y-100689819D02*
X158954172Y-100689819D01*
X158954172Y-100689819D02*
X158858934Y-100642200D01*
X158858934Y-100642200D02*
X158811315Y-100594580D01*
X158477981Y-100023152D02*
X158097029Y-100023152D01*
X158335124Y-99689819D02*
X158335124Y-100546961D01*
X158335124Y-100546961D02*
X158287505Y-100642200D01*
X158287505Y-100642200D02*
X158192267Y-100689819D01*
X158192267Y-100689819D02*
X158097029Y-100689819D01*
X157382743Y-100642200D02*
X157477981Y-100689819D01*
X157477981Y-100689819D02*
X157668457Y-100689819D01*
X157668457Y-100689819D02*
X157763695Y-100642200D01*
X157763695Y-100642200D02*
X157811314Y-100546961D01*
X157811314Y-100546961D02*
X157811314Y-100166009D01*
X157811314Y-100166009D02*
X157763695Y-100070771D01*
X157763695Y-100070771D02*
X157668457Y-100023152D01*
X157668457Y-100023152D02*
X157477981Y-100023152D01*
X157477981Y-100023152D02*
X157382743Y-100070771D01*
X157382743Y-100070771D02*
X157335124Y-100166009D01*
X157335124Y-100166009D02*
X157335124Y-100261247D01*
X157335124Y-100261247D02*
X157811314Y-100356485D01*
X156906552Y-100689819D02*
X156906552Y-100023152D01*
X156906552Y-100213628D02*
X156858933Y-100118390D01*
X156858933Y-100118390D02*
X156811314Y-100070771D01*
X156811314Y-100070771D02*
X156716076Y-100023152D01*
X156716076Y-100023152D02*
X156620838Y-100023152D01*
X156287504Y-100594580D02*
X156239885Y-100642200D01*
X156239885Y-100642200D02*
X156287504Y-100689819D01*
X156287504Y-100689819D02*
X156335123Y-100642200D01*
X156335123Y-100642200D02*
X156287504Y-100594580D01*
X156287504Y-100594580D02*
X156287504Y-100689819D01*
X155382743Y-100023152D02*
X155382743Y-100832676D01*
X155382743Y-100832676D02*
X155430362Y-100927914D01*
X155430362Y-100927914D02*
X155477981Y-100975533D01*
X155477981Y-100975533D02*
X155573219Y-101023152D01*
X155573219Y-101023152D02*
X155716076Y-101023152D01*
X155716076Y-101023152D02*
X155811314Y-100975533D01*
X155382743Y-100642200D02*
X155477981Y-100689819D01*
X155477981Y-100689819D02*
X155668457Y-100689819D01*
X155668457Y-100689819D02*
X155763695Y-100642200D01*
X155763695Y-100642200D02*
X155811314Y-100594580D01*
X155811314Y-100594580D02*
X155858933Y-100499342D01*
X155858933Y-100499342D02*
X155858933Y-100213628D01*
X155858933Y-100213628D02*
X155811314Y-100118390D01*
X155811314Y-100118390D02*
X155763695Y-100070771D01*
X155763695Y-100070771D02*
X155668457Y-100023152D01*
X155668457Y-100023152D02*
X155477981Y-100023152D01*
X155477981Y-100023152D02*
X155382743Y-100070771D01*
X154906552Y-100689819D02*
X154906552Y-100023152D01*
X154906552Y-100213628D02*
X154858933Y-100118390D01*
X154858933Y-100118390D02*
X154811314Y-100070771D01*
X154811314Y-100070771D02*
X154716076Y-100023152D01*
X154716076Y-100023152D02*
X154620838Y-100023152D01*
X154144647Y-100689819D02*
X154239885Y-100642200D01*
X154239885Y-100642200D02*
X154287504Y-100594580D01*
X154287504Y-100594580D02*
X154335123Y-100499342D01*
X154335123Y-100499342D02*
X154335123Y-100213628D01*
X154335123Y-100213628D02*
X154287504Y-100118390D01*
X154287504Y-100118390D02*
X154239885Y-100070771D01*
X154239885Y-100070771D02*
X154144647Y-100023152D01*
X154144647Y-100023152D02*
X154001790Y-100023152D01*
X154001790Y-100023152D02*
X153906552Y-100070771D01*
X153906552Y-100070771D02*
X153858933Y-100118390D01*
X153858933Y-100118390D02*
X153811314Y-100213628D01*
X153811314Y-100213628D02*
X153811314Y-100499342D01*
X153811314Y-100499342D02*
X153858933Y-100594580D01*
X153858933Y-100594580D02*
X153906552Y-100642200D01*
X153906552Y-100642200D02*
X154001790Y-100689819D01*
X154001790Y-100689819D02*
X154144647Y-100689819D01*
X152954171Y-100023152D02*
X152954171Y-100689819D01*
X153382742Y-100023152D02*
X153382742Y-100546961D01*
X153382742Y-100546961D02*
X153335123Y-100642200D01*
X153335123Y-100642200D02*
X153239885Y-100689819D01*
X153239885Y-100689819D02*
X153097028Y-100689819D01*
X153097028Y-100689819D02*
X153001790Y-100642200D01*
X153001790Y-100642200D02*
X152954171Y-100594580D01*
X152477980Y-100023152D02*
X152477980Y-101023152D01*
X152477980Y-100070771D02*
X152382742Y-100023152D01*
X152382742Y-100023152D02*
X152192266Y-100023152D01*
X152192266Y-100023152D02*
X152097028Y-100070771D01*
X152097028Y-100070771D02*
X152049409Y-100118390D01*
X152049409Y-100118390D02*
X152001790Y-100213628D01*
X152001790Y-100213628D02*
X152001790Y-100499342D01*
X152001790Y-100499342D02*
X152049409Y-100594580D01*
X152049409Y-100594580D02*
X152097028Y-100642200D01*
X152097028Y-100642200D02*
X152192266Y-100689819D01*
X152192266Y-100689819D02*
X152382742Y-100689819D01*
X152382742Y-100689819D02*
X152477980Y-100642200D01*
M02*
