%TF.GenerationSoftware,KiCad,Pcbnew,(6.0.8-1)-1*%
%TF.CreationDate,2023-01-09T08:05:37+01:00*%
%TF.ProjectId,OpenC64Cart,4f70656e-4336-4344-9361-72742e6b6963,2*%
%TF.SameCoordinates,Original*%
%TF.FileFunction,Soldermask,Top*%
%TF.FilePolarity,Negative*%
%FSLAX46Y46*%
G04 Gerber Fmt 4.6, Leading zero omitted, Abs format (unit mm)*
G04 Created by KiCad (PCBNEW (6.0.8-1)-1) date 2023-01-09 08:05:37*
%MOMM*%
%LPD*%
G01*
G04 APERTURE LIST*
%ADD10R,8.300000X58.420000*%
%ADD11R,8.000000X1.524000*%
%ADD12R,1.600000X1.600000*%
%ADD13O,1.600000X1.600000*%
%ADD14R,2.400000X1.600000*%
%ADD15O,2.400000X1.600000*%
%ADD16C,5.500000*%
%ADD17R,1.600000X2.400000*%
%ADD18O,1.600000X2.400000*%
%ADD19R,1.250000X1.500000*%
%ADD20C,1.600000*%
G04 APERTURE END LIST*
D10*
%TO.C,U7*%
X107466126Y-88773000D03*
D11*
X107594400Y-62103000D03*
X107594400Y-64643000D03*
X107594400Y-67183000D03*
X107594400Y-69723000D03*
X107594400Y-72263000D03*
X107594400Y-74803000D03*
X107594400Y-77343000D03*
X107594400Y-79883000D03*
X107594400Y-82423000D03*
X107594400Y-84963000D03*
X107594400Y-87503000D03*
X107594400Y-90043000D03*
X107594400Y-92583000D03*
X107594400Y-95123000D03*
X107594400Y-97663000D03*
X107594400Y-100203000D03*
X107594400Y-102743000D03*
X107594400Y-105283000D03*
X107594400Y-107823000D03*
X107594400Y-110363000D03*
X107594400Y-112903000D03*
X107594400Y-115443000D03*
%TD*%
D12*
%TO.C,SRAM1*%
X193852800Y-97658000D03*
D13*
X191312800Y-97658000D03*
X188772800Y-97658000D03*
X186232800Y-97658000D03*
X183692800Y-97658000D03*
X181152800Y-97658000D03*
X178612800Y-97658000D03*
X176072800Y-97658000D03*
X173532800Y-97658000D03*
X170992800Y-97658000D03*
X168452800Y-97658000D03*
X165912800Y-97658000D03*
X163372800Y-97658000D03*
X160832800Y-97658000D03*
X158292800Y-97658000D03*
X155752800Y-97658000D03*
X155752800Y-112898000D03*
X158292800Y-112898000D03*
X160832800Y-112898000D03*
X163372800Y-112898000D03*
X165912800Y-112898000D03*
X168452800Y-112898000D03*
X170992800Y-112898000D03*
X173532800Y-112898000D03*
X176072800Y-112898000D03*
X178612800Y-112898000D03*
X181152800Y-112898000D03*
X183692800Y-112898000D03*
X186232800Y-112898000D03*
X188772800Y-112898000D03*
X191312800Y-112898000D03*
X193852800Y-112898000D03*
%TD*%
D14*
%TO.C,U1*%
X116387800Y-65908000D03*
D15*
X116387800Y-68448000D03*
X116387800Y-70988000D03*
X116387800Y-73528000D03*
X116387800Y-76068000D03*
X116387800Y-78608000D03*
X116387800Y-81148000D03*
X126547800Y-81148000D03*
X126547800Y-78608000D03*
X126547800Y-76068000D03*
X126547800Y-73528000D03*
X126547800Y-70988000D03*
X126547800Y-68448000D03*
X126547800Y-65908000D03*
%TD*%
D16*
%TO.C,H1*%
X145846800Y-88874600D03*
%TD*%
D17*
%TO.C,U4*%
X191307800Y-81138000D03*
D18*
X188767800Y-81138000D03*
X186227800Y-81138000D03*
X183687800Y-81138000D03*
X181147800Y-81138000D03*
X178607800Y-81138000D03*
X176067800Y-81138000D03*
X173527800Y-81138000D03*
X170987800Y-81138000D03*
X168447800Y-81138000D03*
X168447800Y-88758000D03*
X170987800Y-88758000D03*
X173527800Y-88758000D03*
X176067800Y-88758000D03*
X178607800Y-88758000D03*
X181147800Y-88758000D03*
X183687800Y-88758000D03*
X186227800Y-88758000D03*
X188767800Y-88758000D03*
X191307800Y-88758000D03*
%TD*%
D14*
%TO.C,U2*%
X132897800Y-65908000D03*
D15*
X132897800Y-68448000D03*
X132897800Y-70988000D03*
X132897800Y-73528000D03*
X132897800Y-76068000D03*
X132897800Y-78608000D03*
X132897800Y-81148000D03*
X143057800Y-81148000D03*
X143057800Y-78608000D03*
X143057800Y-76068000D03*
X143057800Y-73528000D03*
X143057800Y-70988000D03*
X143057800Y-68448000D03*
X143057800Y-65908000D03*
%TD*%
D17*
%TO.C,U6*%
X122737800Y-112918000D03*
D18*
X125277800Y-112918000D03*
X127817800Y-112918000D03*
X130357800Y-112918000D03*
X132897800Y-112918000D03*
X135437800Y-112918000D03*
X137977800Y-112918000D03*
X140517800Y-112918000D03*
X143057800Y-112918000D03*
X145597800Y-112918000D03*
X145597800Y-105298000D03*
X143057800Y-105298000D03*
X140517800Y-105298000D03*
X137977800Y-105298000D03*
X135437800Y-105298000D03*
X132897800Y-105298000D03*
X130357800Y-105298000D03*
X127817800Y-105298000D03*
X125277800Y-105298000D03*
X122737800Y-105298000D03*
%TD*%
D19*
%TO.C,C1*%
X164287200Y-65780600D03*
D20*
X164287200Y-67030600D03*
D19*
X164287200Y-63280600D03*
D20*
X164287200Y-62030600D03*
%TD*%
D14*
%TO.C,U3*%
X150677800Y-65908000D03*
D15*
X150677800Y-68448000D03*
X150677800Y-70988000D03*
X150677800Y-73528000D03*
X150677800Y-76068000D03*
X150677800Y-78608000D03*
X150677800Y-81148000D03*
X160837800Y-81148000D03*
X160837800Y-78608000D03*
X160837800Y-76068000D03*
X160837800Y-73528000D03*
X160837800Y-70988000D03*
X160837800Y-68448000D03*
X160837800Y-65908000D03*
%TD*%
D17*
%TO.C,U5*%
X191307800Y-65898000D03*
D18*
X188767800Y-65898000D03*
X186227800Y-65898000D03*
X183687800Y-65898000D03*
X181147800Y-65898000D03*
X178607800Y-65898000D03*
X176067800Y-65898000D03*
X173527800Y-65898000D03*
X170987800Y-65898000D03*
X168447800Y-65898000D03*
X168447800Y-73518000D03*
X170987800Y-73518000D03*
X173527800Y-73518000D03*
X176067800Y-73518000D03*
X178607800Y-73518000D03*
X181147800Y-73518000D03*
X183687800Y-73518000D03*
X186227800Y-73518000D03*
X188767800Y-73518000D03*
X191307800Y-73518000D03*
%TD*%
M02*
