M48
; DRILL file {KiCad (6.0.8-1)-1} date 2023 January 07, Saturday 15:11:50
; FORMAT={-:-/ absolute / inch / decimal}
; #@! TF.CreationDate,2023-01-07T15:11:50+01:00
; #@! TF.GenerationSoftware,Kicad,Pcbnew,(6.0.8-1)-1
; #@! TF.FileFunction,Plated,1,2,PTH
FMAT,2
INCH
; #@! TA.AperFunction,Plated,PTH,ViaDrill
T1C0.0157
; #@! TA.AperFunction,Plated,PTH,ComponentDrill
T2C0.0315
%
G90
G05
T1
X4.421Y-4.545
X4.452Y-3.718
X4.464Y-3.347
X4.487Y-2.557
X4.5347Y-3.88
X4.59Y-2.5124
X4.807Y-2.92
X4.832Y-2.97
X4.902Y-4.029
X4.903Y-3.723
X4.932Y-3.739
X4.932Y-4.011
X4.962Y-3.755
X4.962Y-3.99
X4.9724Y-2.3806
X4.976Y-4.201
X4.982Y-4.61
X4.9874Y-3.9674
X4.989Y-3.772
X5.012Y-3.939
X5.015Y-3.7897
X5.0403Y-3.8085
X5.0403Y-3.9187
X5.064Y-2.747
X5.074Y-3.387
X5.144Y-3.257
X5.144Y-3.3304
X5.145Y-2.767
X5.152Y-3.435
X5.182Y-3.475
X5.2986Y-3.5184
X5.322Y-3.745
X5.332Y-3.805
X5.3597Y-3.7773
X5.3779Y-3.5281
X5.412Y-3.295
X5.4359Y-3.5809
X5.58Y-3.765
X5.624Y-4.61
X5.6244Y-2.3806
X5.8424Y-3.209
X5.852Y-4.085
X5.891Y-3.856
X5.907Y-3.273
X5.962Y-4.055
X6.013Y-3.738
X6.082Y-3.615
X6.082Y-3.685
X6.2624Y-2.3806
X6.264Y-4.611
X6.272Y-4.155
X6.272Y-4.205
X6.272Y-4.255
X6.484Y-3.805
X6.962Y-2.381
X6.967Y-4.611
X7.2866Y-3.6296
X7.5Y-4.61
X7.51Y-2.382
X7.5114Y-3.0394
X7.538Y-3.0887
X7.5653Y-3.0658
X7.5967Y-3.0679
X7.6105Y-2.9704
X7.6281Y-3.0699
X7.6411Y-2.9892
X7.6607Y-3.0138
X7.711Y-3.4874
X7.769Y-3.885
X7.771Y-2.842
T2
X4.5822Y-2.5948
X4.5822Y-2.6948
X4.5822Y-2.7948
X4.5822Y-2.8948
X4.5822Y-2.9948
X4.5822Y-3.0948
X4.5822Y-3.1948
X4.8322Y-4.1456
X4.8322Y-4.4456
X4.9322Y-4.1456
X4.9322Y-4.4456
X4.9822Y-2.5948
X4.9822Y-2.6948
X4.9822Y-2.7948
X4.9822Y-2.8948
X4.9822Y-2.9948
X4.9822Y-3.0948
X4.9822Y-3.1948
X5.0322Y-4.1456
X5.0322Y-4.4456
X5.1322Y-4.1456
X5.1322Y-4.4456
X5.2322Y-2.5948
X5.2322Y-2.6948
X5.2322Y-2.7948
X5.2322Y-2.8948
X5.2322Y-2.9948
X5.2322Y-3.0948
X5.2322Y-3.1948
X5.2322Y-4.1456
X5.2322Y-4.4456
X5.3322Y-4.1456
X5.3322Y-4.4456
X5.4322Y-4.1456
X5.4322Y-4.4456
X5.5322Y-4.1456
X5.5322Y-4.4456
X5.6322Y-2.5948
X5.6322Y-2.6948
X5.6322Y-2.7948
X5.6322Y-2.8948
X5.6322Y-2.9948
X5.6322Y-3.0948
X5.6322Y-3.1948
X5.6322Y-4.1456
X5.6322Y-4.4456
X5.7322Y-4.1456
X5.7322Y-4.4456
X5.9322Y-2.5948
X5.9322Y-2.6948
X5.9322Y-2.7948
X5.9322Y-2.8948
X5.9322Y-2.9948
X5.9322Y-3.0948
X5.9322Y-3.1948
X6.132Y-3.8448
X6.132Y-4.4448
X6.232Y-3.8448
X6.232Y-4.4448
X6.332Y-3.8448
X6.332Y-4.4448
X6.3322Y-2.5948
X6.3322Y-2.6948
X6.3322Y-2.7948
X6.3322Y-2.8948
X6.3322Y-2.9948
X6.3322Y-3.0948
X6.3322Y-3.1948
X6.432Y-3.8448
X6.432Y-4.4448
X6.468Y-2.4421
X6.468Y-2.639
X6.532Y-3.8448
X6.532Y-4.4448
X6.6318Y-2.5944
X6.6318Y-2.8944
X6.6318Y-3.1944
X6.6318Y-3.4944
X6.632Y-3.8448
X6.632Y-4.4448
X6.7318Y-2.5944
X6.7318Y-2.8944
X6.7318Y-3.1944
X6.7318Y-3.4944
X6.732Y-3.8448
X6.732Y-4.4448
X6.8318Y-2.5944
X6.8318Y-2.8944
X6.8318Y-3.1944
X6.8318Y-3.4944
X6.832Y-3.8448
X6.832Y-4.4448
X6.9318Y-2.5944
X6.9318Y-2.8944
X6.9318Y-3.1944
X6.9318Y-3.4944
X6.932Y-3.8448
X6.932Y-4.4448
X7.0318Y-2.5944
X7.0318Y-2.8944
X7.0318Y-3.1944
X7.0318Y-3.4944
X7.032Y-3.8448
X7.032Y-4.4448
X7.1318Y-2.5944
X7.1318Y-2.8944
X7.1318Y-3.1944
X7.1318Y-3.4944
X7.132Y-3.8448
X7.132Y-4.4448
X7.2318Y-2.5944
X7.2318Y-2.8944
X7.2318Y-3.1944
X7.2318Y-3.4944
X7.232Y-3.8448
X7.232Y-4.4448
X7.3318Y-2.5944
X7.3318Y-2.8944
X7.3318Y-3.1944
X7.3318Y-3.4944
X7.332Y-3.8448
X7.332Y-4.4448
X7.4318Y-2.5944
X7.4318Y-2.8944
X7.4318Y-3.1944
X7.4318Y-3.4944
X7.432Y-3.8448
X7.432Y-4.4448
X7.5318Y-2.5944
X7.5318Y-2.8944
X7.5318Y-3.1944
X7.5318Y-3.4944
X7.532Y-3.8448
X7.532Y-4.4448
X7.632Y-3.8448
X7.632Y-4.4448
T0
M30
