%TF.GenerationSoftware,KiCad,Pcbnew,(6.0.8-1)-1*%
%TF.CreationDate,2023-01-09T08:05:37+01:00*%
%TF.ProjectId,OpenC64Cart,4f70656e-4336-4344-9361-72742e6b6963,2*%
%TF.SameCoordinates,Original*%
%TF.FileFunction,Legend,Bot*%
%TF.FilePolarity,Positive*%
%FSLAX46Y46*%
G04 Gerber Fmt 4.6, Leading zero omitted, Abs format (unit mm)*
G04 Created by KiCad (PCBNEW (6.0.8-1)-1) date 2023-01-09 08:05:37*
%MOMM*%
%LPD*%
G01*
G04 APERTURE LIST*
%ADD10C,0.150000*%
G04 APERTURE END LIST*
D10*
X125603828Y-88834980D02*
X125032400Y-88834980D01*
X125318114Y-89834980D02*
X125318114Y-88834980D01*
X124699066Y-89834980D02*
X124699066Y-88834980D01*
X124699066Y-89311171D02*
X124127638Y-89311171D01*
X124127638Y-89834980D02*
X124127638Y-88834980D01*
X123651447Y-89834980D02*
X123651447Y-88834980D01*
X123222876Y-89787361D02*
X123080019Y-89834980D01*
X122841923Y-89834980D01*
X122746685Y-89787361D01*
X122699066Y-89739742D01*
X122651447Y-89644504D01*
X122651447Y-89549266D01*
X122699066Y-89454028D01*
X122746685Y-89406409D01*
X122841923Y-89358790D01*
X123032400Y-89311171D01*
X123127638Y-89263552D01*
X123175257Y-89215933D01*
X123222876Y-89120695D01*
X123222876Y-89025457D01*
X123175257Y-88930219D01*
X123127638Y-88882600D01*
X123032400Y-88834980D01*
X122794304Y-88834980D01*
X122651447Y-88882600D01*
X121508590Y-89787361D02*
X121365733Y-89834980D01*
X121127638Y-89834980D01*
X121032400Y-89787361D01*
X120984780Y-89739742D01*
X120937161Y-89644504D01*
X120937161Y-89549266D01*
X120984780Y-89454028D01*
X121032400Y-89406409D01*
X121127638Y-89358790D01*
X121318114Y-89311171D01*
X121413352Y-89263552D01*
X121460971Y-89215933D01*
X121508590Y-89120695D01*
X121508590Y-89025457D01*
X121460971Y-88930219D01*
X121413352Y-88882600D01*
X121318114Y-88834980D01*
X121080019Y-88834980D01*
X120937161Y-88882600D01*
X120508590Y-89834980D02*
X120508590Y-88834980D01*
X120032400Y-89834980D02*
X120032400Y-88834980D01*
X119794304Y-88834980D01*
X119651447Y-88882600D01*
X119556209Y-88977838D01*
X119508590Y-89073076D01*
X119460971Y-89263552D01*
X119460971Y-89406409D01*
X119508590Y-89596885D01*
X119556209Y-89692123D01*
X119651447Y-89787361D01*
X119794304Y-89834980D01*
X120032400Y-89834980D01*
X119032400Y-89311171D02*
X118699066Y-89311171D01*
X118556209Y-89834980D02*
X119032400Y-89834980D01*
X119032400Y-88834980D01*
X118556209Y-88834980D01*
X117365733Y-89834980D02*
X117365733Y-88834980D01*
X117127638Y-88834980D01*
X116984780Y-88882600D01*
X116889542Y-88977838D01*
X116841923Y-89073076D01*
X116794304Y-89263552D01*
X116794304Y-89406409D01*
X116841923Y-89596885D01*
X116889542Y-89692123D01*
X116984780Y-89787361D01*
X117127638Y-89834980D01*
X117365733Y-89834980D01*
X116175257Y-88834980D02*
X115984780Y-88834980D01*
X115889542Y-88882600D01*
X115794304Y-88977838D01*
X115746685Y-89168314D01*
X115746685Y-89501647D01*
X115794304Y-89692123D01*
X115889542Y-89787361D01*
X115984780Y-89834980D01*
X116175257Y-89834980D01*
X116270495Y-89787361D01*
X116365733Y-89692123D01*
X116413352Y-89501647D01*
X116413352Y-89168314D01*
X116365733Y-88977838D01*
X116270495Y-88882600D01*
X116175257Y-88834980D01*
X115413352Y-88834980D02*
X115175257Y-89834980D01*
X114984780Y-89120695D01*
X114794304Y-89834980D01*
X114556209Y-88834980D01*
X114175257Y-89834980D02*
X114175257Y-88834980D01*
X113603828Y-89834980D01*
X113603828Y-88834980D01*
M02*
