%TF.GenerationSoftware,KiCad,Pcbnew,(6.0.8-1)-1*%
%TF.CreationDate,2023-02-02T17:23:49+01:00*%
%TF.ProjectId,OpenC64Cart,4f70656e-4336-4344-9361-72742e6b6963,2*%
%TF.SameCoordinates,Original*%
%TF.FileFunction,Legend,Top*%
%TF.FilePolarity,Positive*%
%FSLAX46Y46*%
G04 Gerber Fmt 4.6, Leading zero omitted, Abs format (unit mm)*
G04 Created by KiCad (PCBNEW (6.0.8-1)-1) date 2023-02-02 17:23:49*
%MOMM*%
%LPD*%
G01*
G04 APERTURE LIST*
%ADD10C,0.150000*%
%ADD11C,0.120000*%
G04 APERTURE END LIST*
D10*
X114723809Y-88842380D02*
X115295238Y-88842380D01*
X115009523Y-89842380D02*
X115009523Y-88842380D01*
X115628571Y-89842380D02*
X115628571Y-88842380D01*
X115628571Y-89318571D02*
X116200000Y-89318571D01*
X116200000Y-89842380D02*
X116200000Y-88842380D01*
X116676190Y-89842380D02*
X116676190Y-88842380D01*
X117104761Y-89794761D02*
X117247619Y-89842380D01*
X117485714Y-89842380D01*
X117580952Y-89794761D01*
X117628571Y-89747142D01*
X117676190Y-89651904D01*
X117676190Y-89556666D01*
X117628571Y-89461428D01*
X117580952Y-89413809D01*
X117485714Y-89366190D01*
X117295238Y-89318571D01*
X117200000Y-89270952D01*
X117152380Y-89223333D01*
X117104761Y-89128095D01*
X117104761Y-89032857D01*
X117152380Y-88937619D01*
X117200000Y-88890000D01*
X117295238Y-88842380D01*
X117533333Y-88842380D01*
X117676190Y-88890000D01*
X118819047Y-89794761D02*
X118961904Y-89842380D01*
X119200000Y-89842380D01*
X119295238Y-89794761D01*
X119342857Y-89747142D01*
X119390476Y-89651904D01*
X119390476Y-89556666D01*
X119342857Y-89461428D01*
X119295238Y-89413809D01*
X119200000Y-89366190D01*
X119009523Y-89318571D01*
X118914285Y-89270952D01*
X118866666Y-89223333D01*
X118819047Y-89128095D01*
X118819047Y-89032857D01*
X118866666Y-88937619D01*
X118914285Y-88890000D01*
X119009523Y-88842380D01*
X119247619Y-88842380D01*
X119390476Y-88890000D01*
X119819047Y-89842380D02*
X119819047Y-88842380D01*
X120295238Y-89842380D02*
X120295238Y-88842380D01*
X120533333Y-88842380D01*
X120676190Y-88890000D01*
X120771428Y-88985238D01*
X120819047Y-89080476D01*
X120866666Y-89270952D01*
X120866666Y-89413809D01*
X120819047Y-89604285D01*
X120771428Y-89699523D01*
X120676190Y-89794761D01*
X120533333Y-89842380D01*
X120295238Y-89842380D01*
X121295238Y-89318571D02*
X121628571Y-89318571D01*
X121771428Y-89842380D02*
X121295238Y-89842380D01*
X121295238Y-88842380D01*
X121771428Y-88842380D01*
X122961904Y-88842380D02*
X122961904Y-89651904D01*
X123009523Y-89747142D01*
X123057142Y-89794761D01*
X123152380Y-89842380D01*
X123342857Y-89842380D01*
X123438095Y-89794761D01*
X123485714Y-89747142D01*
X123533333Y-89651904D01*
X123533333Y-88842380D01*
X124009523Y-89842380D02*
X124009523Y-88842380D01*
X124390476Y-88842380D01*
X124485714Y-88890000D01*
X124533333Y-88937619D01*
X124580952Y-89032857D01*
X124580952Y-89175714D01*
X124533333Y-89270952D01*
X124485714Y-89318571D01*
X124390476Y-89366190D01*
X124009523Y-89366190D01*
X156610000Y-82930000D02*
G75*
G03*
X156610000Y-82930000I-550000J0D01*
G01*
X141652380Y-77825714D02*
X141652380Y-77159047D01*
X142652380Y-77587619D01*
X141985714Y-76349523D02*
X142652380Y-76349523D01*
X141604761Y-76587619D02*
X142319047Y-76825714D01*
X142319047Y-76206666D01*
X142652380Y-75825714D02*
X141652380Y-75825714D01*
X142128571Y-75825714D02*
X142128571Y-75254285D01*
X142652380Y-75254285D02*
X141652380Y-75254285D01*
X142557142Y-74206666D02*
X142604761Y-74254285D01*
X142652380Y-74397142D01*
X142652380Y-74492380D01*
X142604761Y-74635238D01*
X142509523Y-74730476D01*
X142414285Y-74778095D01*
X142223809Y-74825714D01*
X142080952Y-74825714D01*
X141890476Y-74778095D01*
X141795238Y-74730476D01*
X141700000Y-74635238D01*
X141652380Y-74492380D01*
X141652380Y-74397142D01*
X141700000Y-74254285D01*
X141747619Y-74206666D01*
X141652380Y-73587619D02*
X141652380Y-73492380D01*
X141700000Y-73397142D01*
X141747619Y-73349523D01*
X141842857Y-73301904D01*
X142033333Y-73254285D01*
X142271428Y-73254285D01*
X142461904Y-73301904D01*
X142557142Y-73349523D01*
X142604761Y-73397142D01*
X142652380Y-73492380D01*
X142652380Y-73587619D01*
X142604761Y-73682857D01*
X142557142Y-73730476D01*
X142461904Y-73778095D01*
X142271428Y-73825714D01*
X142033333Y-73825714D01*
X141842857Y-73778095D01*
X141747619Y-73730476D01*
X141700000Y-73682857D01*
X141652380Y-73587619D01*
X141652380Y-72635238D02*
X141652380Y-72540000D01*
X141700000Y-72444761D01*
X141747619Y-72397142D01*
X141842857Y-72349523D01*
X142033333Y-72301904D01*
X142271428Y-72301904D01*
X142461904Y-72349523D01*
X142557142Y-72397142D01*
X142604761Y-72444761D01*
X142652380Y-72540000D01*
X142652380Y-72635238D01*
X142604761Y-72730476D01*
X142557142Y-72778095D01*
X142461904Y-72825714D01*
X142271428Y-72873333D01*
X142033333Y-72873333D01*
X141842857Y-72825714D01*
X141747619Y-72778095D01*
X141700000Y-72730476D01*
X141652380Y-72635238D01*
X168888095Y-87352380D02*
X169554761Y-87352380D01*
X169126190Y-88352380D01*
X170364285Y-87685714D02*
X170364285Y-88352380D01*
X170126190Y-87304761D02*
X169888095Y-88019047D01*
X170507142Y-88019047D01*
X170888095Y-88352380D02*
X170888095Y-87352380D01*
X170888095Y-87828571D02*
X171459523Y-87828571D01*
X171459523Y-88352380D02*
X171459523Y-87352380D01*
X172507142Y-88257142D02*
X172459523Y-88304761D01*
X172316666Y-88352380D01*
X172221428Y-88352380D01*
X172078571Y-88304761D01*
X171983333Y-88209523D01*
X171935714Y-88114285D01*
X171888095Y-87923809D01*
X171888095Y-87780952D01*
X171935714Y-87590476D01*
X171983333Y-87495238D01*
X172078571Y-87400000D01*
X172221428Y-87352380D01*
X172316666Y-87352380D01*
X172459523Y-87400000D01*
X172507142Y-87447619D01*
X173411904Y-87352380D02*
X172935714Y-87352380D01*
X172888095Y-87828571D01*
X172935714Y-87780952D01*
X173030952Y-87733333D01*
X173269047Y-87733333D01*
X173364285Y-87780952D01*
X173411904Y-87828571D01*
X173459523Y-87923809D01*
X173459523Y-88161904D01*
X173411904Y-88257142D01*
X173364285Y-88304761D01*
X173269047Y-88352380D01*
X173030952Y-88352380D01*
X172935714Y-88304761D01*
X172888095Y-88257142D01*
X173792857Y-87352380D02*
X174459523Y-87352380D01*
X174030952Y-88352380D01*
X174745238Y-87352380D02*
X175364285Y-87352380D01*
X175030952Y-87733333D01*
X175173809Y-87733333D01*
X175269047Y-87780952D01*
X175316666Y-87828571D01*
X175364285Y-87923809D01*
X175364285Y-88161904D01*
X175316666Y-88257142D01*
X175269047Y-88304761D01*
X175173809Y-88352380D01*
X174888095Y-88352380D01*
X174792857Y-88304761D01*
X174745238Y-88257142D01*
X156946190Y-89675238D02*
X156898571Y-89722857D01*
X156850952Y-89818095D01*
X156850952Y-89913333D01*
X156898571Y-90008571D01*
X156946190Y-90056190D01*
X157041428Y-90103809D01*
X157136666Y-90103809D01*
X157231904Y-90056190D01*
X157279523Y-90008571D01*
X157327142Y-89913333D01*
X157327142Y-89818095D01*
X157279523Y-89722857D01*
X157231904Y-89675238D01*
X156850952Y-89675238D02*
X157231904Y-89675238D01*
X157279523Y-89627619D01*
X157279523Y-89580000D01*
X157231904Y-89484761D01*
X157136666Y-89437142D01*
X156898571Y-89437142D01*
X156755714Y-89532380D01*
X156660476Y-89675238D01*
X156612857Y-89865714D01*
X156660476Y-90056190D01*
X156755714Y-90199047D01*
X156898571Y-90294285D01*
X157089047Y-90341904D01*
X157279523Y-90294285D01*
X157422380Y-90199047D01*
X157517619Y-90056190D01*
X157565238Y-89865714D01*
X157517619Y-89675238D01*
X157422380Y-89532380D01*
X157422380Y-89008571D02*
X156422380Y-89008571D01*
X156422380Y-88770476D01*
X156470000Y-88627619D01*
X156565238Y-88532380D01*
X156660476Y-88484761D01*
X156850952Y-88437142D01*
X156993809Y-88437142D01*
X157184285Y-88484761D01*
X157279523Y-88532380D01*
X157374761Y-88627619D01*
X157422380Y-88770476D01*
X157422380Y-89008571D01*
X156898571Y-87675238D02*
X156898571Y-88008571D01*
X157422380Y-88008571D02*
X156422380Y-88008571D01*
X156422380Y-87532380D01*
X156898571Y-86818095D02*
X156898571Y-87151428D01*
X157422380Y-87151428D02*
X156422380Y-87151428D01*
X156422380Y-86675238D01*
X156898571Y-86294285D02*
X156898571Y-85960952D01*
X157422380Y-85818095D02*
X157422380Y-86294285D01*
X156422380Y-86294285D01*
X156422380Y-85818095D01*
X157156190Y-75861428D02*
X157108571Y-75909047D01*
X157060952Y-76004285D01*
X157060952Y-76099523D01*
X157108571Y-76194761D01*
X157156190Y-76242380D01*
X157251428Y-76290000D01*
X157346666Y-76290000D01*
X157441904Y-76242380D01*
X157489523Y-76194761D01*
X157537142Y-76099523D01*
X157537142Y-76004285D01*
X157489523Y-75909047D01*
X157441904Y-75861428D01*
X157060952Y-75861428D02*
X157441904Y-75861428D01*
X157489523Y-75813809D01*
X157489523Y-75766190D01*
X157441904Y-75670952D01*
X157346666Y-75623333D01*
X157108571Y-75623333D01*
X156965714Y-75718571D01*
X156870476Y-75861428D01*
X156822857Y-76051904D01*
X156870476Y-76242380D01*
X156965714Y-76385238D01*
X157108571Y-76480476D01*
X157299047Y-76528095D01*
X157489523Y-76480476D01*
X157632380Y-76385238D01*
X157727619Y-76242380D01*
X157775238Y-76051904D01*
X157727619Y-75861428D01*
X157632380Y-75718571D01*
X157632380Y-75194761D02*
X156632380Y-75194761D01*
X156632380Y-74956666D01*
X156680000Y-74813809D01*
X156775238Y-74718571D01*
X156870476Y-74670952D01*
X157060952Y-74623333D01*
X157203809Y-74623333D01*
X157394285Y-74670952D01*
X157489523Y-74718571D01*
X157584761Y-74813809D01*
X157632380Y-74956666D01*
X157632380Y-75194761D01*
X157108571Y-73861428D02*
X157108571Y-74194761D01*
X157632380Y-74194761D02*
X156632380Y-74194761D01*
X156632380Y-73718571D01*
X157108571Y-73004285D02*
X157108571Y-73337619D01*
X157632380Y-73337619D02*
X156632380Y-73337619D01*
X156632380Y-72861428D01*
X157108571Y-72147142D02*
X157108571Y-72480476D01*
X157632380Y-72480476D02*
X156632380Y-72480476D01*
X156632380Y-72004285D01*
X129272380Y-77885714D02*
X129272380Y-77219047D01*
X130272380Y-77647619D01*
X129605714Y-76409523D02*
X130272380Y-76409523D01*
X129224761Y-76647619D02*
X129939047Y-76885714D01*
X129939047Y-76266666D01*
X130272380Y-75885714D02*
X129272380Y-75885714D01*
X129748571Y-75885714D02*
X129748571Y-75314285D01*
X130272380Y-75314285D02*
X129272380Y-75314285D01*
X130177142Y-74266666D02*
X130224761Y-74314285D01*
X130272380Y-74457142D01*
X130272380Y-74552380D01*
X130224761Y-74695238D01*
X130129523Y-74790476D01*
X130034285Y-74838095D01*
X129843809Y-74885714D01*
X129700952Y-74885714D01*
X129510476Y-74838095D01*
X129415238Y-74790476D01*
X129320000Y-74695238D01*
X129272380Y-74552380D01*
X129272380Y-74457142D01*
X129320000Y-74314285D01*
X129367619Y-74266666D01*
X129272380Y-73647619D02*
X129272380Y-73552380D01*
X129320000Y-73457142D01*
X129367619Y-73409523D01*
X129462857Y-73361904D01*
X129653333Y-73314285D01*
X129891428Y-73314285D01*
X130081904Y-73361904D01*
X130177142Y-73409523D01*
X130224761Y-73457142D01*
X130272380Y-73552380D01*
X130272380Y-73647619D01*
X130224761Y-73742857D01*
X130177142Y-73790476D01*
X130081904Y-73838095D01*
X129891428Y-73885714D01*
X129653333Y-73885714D01*
X129462857Y-73838095D01*
X129367619Y-73790476D01*
X129320000Y-73742857D01*
X129272380Y-73647619D01*
X129700952Y-72742857D02*
X129653333Y-72838095D01*
X129605714Y-72885714D01*
X129510476Y-72933333D01*
X129462857Y-72933333D01*
X129367619Y-72885714D01*
X129320000Y-72838095D01*
X129272380Y-72742857D01*
X129272380Y-72552380D01*
X129320000Y-72457142D01*
X129367619Y-72409523D01*
X129462857Y-72361904D01*
X129510476Y-72361904D01*
X129605714Y-72409523D01*
X129653333Y-72457142D01*
X129700952Y-72552380D01*
X129700952Y-72742857D01*
X129748571Y-72838095D01*
X129796190Y-72885714D01*
X129891428Y-72933333D01*
X130081904Y-72933333D01*
X130177142Y-72885714D01*
X130224761Y-72838095D01*
X130272380Y-72742857D01*
X130272380Y-72552380D01*
X130224761Y-72457142D01*
X130177142Y-72409523D01*
X130081904Y-72361904D01*
X129891428Y-72361904D01*
X129796190Y-72409523D01*
X129748571Y-72457142D01*
X129700952Y-72552380D01*
X117792380Y-77945714D02*
X117792380Y-77279047D01*
X118792380Y-77707619D01*
X118125714Y-76469523D02*
X118792380Y-76469523D01*
X117744761Y-76707619D02*
X118459047Y-76945714D01*
X118459047Y-76326666D01*
X118792380Y-75945714D02*
X117792380Y-75945714D01*
X118268571Y-75945714D02*
X118268571Y-75374285D01*
X118792380Y-75374285D02*
X117792380Y-75374285D01*
X118697142Y-74326666D02*
X118744761Y-74374285D01*
X118792380Y-74517142D01*
X118792380Y-74612380D01*
X118744761Y-74755238D01*
X118649523Y-74850476D01*
X118554285Y-74898095D01*
X118363809Y-74945714D01*
X118220952Y-74945714D01*
X118030476Y-74898095D01*
X117935238Y-74850476D01*
X117840000Y-74755238D01*
X117792380Y-74612380D01*
X117792380Y-74517142D01*
X117840000Y-74374285D01*
X117887619Y-74326666D01*
X117792380Y-73707619D02*
X117792380Y-73612380D01*
X117840000Y-73517142D01*
X117887619Y-73469523D01*
X117982857Y-73421904D01*
X118173333Y-73374285D01*
X118411428Y-73374285D01*
X118601904Y-73421904D01*
X118697142Y-73469523D01*
X118744761Y-73517142D01*
X118792380Y-73612380D01*
X118792380Y-73707619D01*
X118744761Y-73802857D01*
X118697142Y-73850476D01*
X118601904Y-73898095D01*
X118411428Y-73945714D01*
X118173333Y-73945714D01*
X117982857Y-73898095D01*
X117887619Y-73850476D01*
X117840000Y-73802857D01*
X117792380Y-73707619D01*
X118125714Y-72517142D02*
X118792380Y-72517142D01*
X117744761Y-72755238D02*
X118459047Y-72993333D01*
X118459047Y-72374285D01*
X163525714Y-106922380D02*
X163525714Y-105922380D01*
X163525714Y-106398571D02*
X164097142Y-106398571D01*
X164097142Y-106922380D02*
X164097142Y-105922380D01*
X164573333Y-106922380D02*
X164573333Y-105922380D01*
X164906666Y-106636666D01*
X165240000Y-105922380D01*
X165240000Y-106922380D01*
X166144761Y-105922380D02*
X165954285Y-105922380D01*
X165859047Y-105970000D01*
X165811428Y-106017619D01*
X165716190Y-106160476D01*
X165668571Y-106350952D01*
X165668571Y-106731904D01*
X165716190Y-106827142D01*
X165763809Y-106874761D01*
X165859047Y-106922380D01*
X166049523Y-106922380D01*
X166144761Y-106874761D01*
X166192380Y-106827142D01*
X166240000Y-106731904D01*
X166240000Y-106493809D01*
X166192380Y-106398571D01*
X166144761Y-106350952D01*
X166049523Y-106303333D01*
X165859047Y-106303333D01*
X165763809Y-106350952D01*
X165716190Y-106398571D01*
X165668571Y-106493809D01*
X166620952Y-106017619D02*
X166668571Y-105970000D01*
X166763809Y-105922380D01*
X167001904Y-105922380D01*
X167097142Y-105970000D01*
X167144761Y-106017619D01*
X167192380Y-106112857D01*
X167192380Y-106208095D01*
X167144761Y-106350952D01*
X166573333Y-106922380D01*
X167192380Y-106922380D01*
X167763809Y-106350952D02*
X167668571Y-106303333D01*
X167620952Y-106255714D01*
X167573333Y-106160476D01*
X167573333Y-106112857D01*
X167620952Y-106017619D01*
X167668571Y-105970000D01*
X167763809Y-105922380D01*
X167954285Y-105922380D01*
X168049523Y-105970000D01*
X168097142Y-106017619D01*
X168144761Y-106112857D01*
X168144761Y-106160476D01*
X168097142Y-106255714D01*
X168049523Y-106303333D01*
X167954285Y-106350952D01*
X167763809Y-106350952D01*
X167668571Y-106398571D01*
X167620952Y-106446190D01*
X167573333Y-106541428D01*
X167573333Y-106731904D01*
X167620952Y-106827142D01*
X167668571Y-106874761D01*
X167763809Y-106922380D01*
X167954285Y-106922380D01*
X168049523Y-106874761D01*
X168097142Y-106827142D01*
X168144761Y-106731904D01*
X168144761Y-106541428D01*
X168097142Y-106446190D01*
X168049523Y-106398571D01*
X167954285Y-106350952D01*
X169049523Y-105922380D02*
X168573333Y-105922380D01*
X168525714Y-106398571D01*
X168573333Y-106350952D01*
X168668571Y-106303333D01*
X168906666Y-106303333D01*
X169001904Y-106350952D01*
X169049523Y-106398571D01*
X169097142Y-106493809D01*
X169097142Y-106731904D01*
X169049523Y-106827142D01*
X169001904Y-106874761D01*
X168906666Y-106922380D01*
X168668571Y-106922380D01*
X168573333Y-106874761D01*
X168525714Y-106827142D01*
X170049523Y-106922380D02*
X169478095Y-106922380D01*
X169763809Y-106922380D02*
X169763809Y-105922380D01*
X169668571Y-106065238D01*
X169573333Y-106160476D01*
X169478095Y-106208095D01*
X170430476Y-106017619D02*
X170478095Y-105970000D01*
X170573333Y-105922380D01*
X170811428Y-105922380D01*
X170906666Y-105970000D01*
X170954285Y-106017619D01*
X171001904Y-106112857D01*
X171001904Y-106208095D01*
X170954285Y-106350952D01*
X170382857Y-106922380D01*
X171001904Y-106922380D01*
X126558095Y-108752380D02*
X127224761Y-108752380D01*
X126796190Y-109752380D01*
X128034285Y-109085714D02*
X128034285Y-109752380D01*
X127796190Y-108704761D02*
X127558095Y-109419047D01*
X128177142Y-109419047D01*
X128558095Y-109752380D02*
X128558095Y-108752380D01*
X128558095Y-109228571D02*
X129129523Y-109228571D01*
X129129523Y-109752380D02*
X129129523Y-108752380D01*
X130177142Y-109657142D02*
X130129523Y-109704761D01*
X129986666Y-109752380D01*
X129891428Y-109752380D01*
X129748571Y-109704761D01*
X129653333Y-109609523D01*
X129605714Y-109514285D01*
X129558095Y-109323809D01*
X129558095Y-109180952D01*
X129605714Y-108990476D01*
X129653333Y-108895238D01*
X129748571Y-108800000D01*
X129891428Y-108752380D01*
X129986666Y-108752380D01*
X130129523Y-108800000D01*
X130177142Y-108847619D01*
X130558095Y-108847619D02*
X130605714Y-108800000D01*
X130700952Y-108752380D01*
X130939047Y-108752380D01*
X131034285Y-108800000D01*
X131081904Y-108847619D01*
X131129523Y-108942857D01*
X131129523Y-109038095D01*
X131081904Y-109180952D01*
X130510476Y-109752380D01*
X131129523Y-109752380D01*
X131986666Y-109085714D02*
X131986666Y-109752380D01*
X131748571Y-108704761D02*
X131510476Y-109419047D01*
X132129523Y-109419047D01*
X132986666Y-108752380D02*
X132510476Y-108752380D01*
X132462857Y-109228571D01*
X132510476Y-109180952D01*
X132605714Y-109133333D01*
X132843809Y-109133333D01*
X132939047Y-109180952D01*
X132986666Y-109228571D01*
X133034285Y-109323809D01*
X133034285Y-109561904D01*
X132986666Y-109657142D01*
X132939047Y-109704761D01*
X132843809Y-109752380D01*
X132605714Y-109752380D01*
X132510476Y-109704761D01*
X132462857Y-109657142D01*
X168758095Y-73372380D02*
X169424761Y-73372380D01*
X168996190Y-74372380D01*
X170234285Y-73705714D02*
X170234285Y-74372380D01*
X169996190Y-73324761D02*
X169758095Y-74039047D01*
X170377142Y-74039047D01*
X170758095Y-74372380D02*
X170758095Y-73372380D01*
X170758095Y-73848571D02*
X171329523Y-73848571D01*
X171329523Y-74372380D02*
X171329523Y-73372380D01*
X172377142Y-74277142D02*
X172329523Y-74324761D01*
X172186666Y-74372380D01*
X172091428Y-74372380D01*
X171948571Y-74324761D01*
X171853333Y-74229523D01*
X171805714Y-74134285D01*
X171758095Y-73943809D01*
X171758095Y-73800952D01*
X171805714Y-73610476D01*
X171853333Y-73515238D01*
X171948571Y-73420000D01*
X172091428Y-73372380D01*
X172186666Y-73372380D01*
X172329523Y-73420000D01*
X172377142Y-73467619D01*
X173281904Y-73372380D02*
X172805714Y-73372380D01*
X172758095Y-73848571D01*
X172805714Y-73800952D01*
X172900952Y-73753333D01*
X173139047Y-73753333D01*
X173234285Y-73800952D01*
X173281904Y-73848571D01*
X173329523Y-73943809D01*
X173329523Y-74181904D01*
X173281904Y-74277142D01*
X173234285Y-74324761D01*
X173139047Y-74372380D01*
X172900952Y-74372380D01*
X172805714Y-74324761D01*
X172758095Y-74277142D01*
X173662857Y-73372380D02*
X174329523Y-73372380D01*
X173900952Y-74372380D01*
X174615238Y-73372380D02*
X175234285Y-73372380D01*
X174900952Y-73753333D01*
X175043809Y-73753333D01*
X175139047Y-73800952D01*
X175186666Y-73848571D01*
X175234285Y-73943809D01*
X175234285Y-74181904D01*
X175186666Y-74277142D01*
X175139047Y-74324761D01*
X175043809Y-74372380D01*
X174758095Y-74372380D01*
X174662857Y-74324761D01*
X174615238Y-74277142D01*
%TO.C,U3*%
X141318095Y-63512380D02*
X141318095Y-64321904D01*
X141365714Y-64417142D01*
X141413333Y-64464761D01*
X141508571Y-64512380D01*
X141699047Y-64512380D01*
X141794285Y-64464761D01*
X141841904Y-64417142D01*
X141889523Y-64321904D01*
X141889523Y-63512380D01*
X142270476Y-63512380D02*
X142889523Y-63512380D01*
X142556190Y-63893333D01*
X142699047Y-63893333D01*
X142794285Y-63940952D01*
X142841904Y-63988571D01*
X142889523Y-64083809D01*
X142889523Y-64321904D01*
X142841904Y-64417142D01*
X142794285Y-64464761D01*
X142699047Y-64512380D01*
X142413333Y-64512380D01*
X142318095Y-64464761D01*
X142270476Y-64417142D01*
%TO.C,C8*%
X180073333Y-115897142D02*
X180025714Y-115944761D01*
X179882857Y-115992380D01*
X179787619Y-115992380D01*
X179644761Y-115944761D01*
X179549523Y-115849523D01*
X179501904Y-115754285D01*
X179454285Y-115563809D01*
X179454285Y-115420952D01*
X179501904Y-115230476D01*
X179549523Y-115135238D01*
X179644761Y-115040000D01*
X179787619Y-114992380D01*
X179882857Y-114992380D01*
X180025714Y-115040000D01*
X180073333Y-115087619D01*
X180644761Y-115420952D02*
X180549523Y-115373333D01*
X180501904Y-115325714D01*
X180454285Y-115230476D01*
X180454285Y-115182857D01*
X180501904Y-115087619D01*
X180549523Y-115040000D01*
X180644761Y-114992380D01*
X180835238Y-114992380D01*
X180930476Y-115040000D01*
X180978095Y-115087619D01*
X181025714Y-115182857D01*
X181025714Y-115230476D01*
X180978095Y-115325714D01*
X180930476Y-115373333D01*
X180835238Y-115420952D01*
X180644761Y-115420952D01*
X180549523Y-115468571D01*
X180501904Y-115516190D01*
X180454285Y-115611428D01*
X180454285Y-115801904D01*
X180501904Y-115897142D01*
X180549523Y-115944761D01*
X180644761Y-115992380D01*
X180835238Y-115992380D01*
X180930476Y-115944761D01*
X180978095Y-115897142D01*
X181025714Y-115801904D01*
X181025714Y-115611428D01*
X180978095Y-115516190D01*
X180930476Y-115468571D01*
X180835238Y-115420952D01*
%TO.C,C1*%
X182757142Y-80646666D02*
X182804761Y-80694285D01*
X182852380Y-80837142D01*
X182852380Y-80932380D01*
X182804761Y-81075238D01*
X182709523Y-81170476D01*
X182614285Y-81218095D01*
X182423809Y-81265714D01*
X182280952Y-81265714D01*
X182090476Y-81218095D01*
X181995238Y-81170476D01*
X181900000Y-81075238D01*
X181852380Y-80932380D01*
X181852380Y-80837142D01*
X181900000Y-80694285D01*
X181947619Y-80646666D01*
X182852380Y-79694285D02*
X182852380Y-80265714D01*
X182852380Y-79980000D02*
X181852380Y-79980000D01*
X181995238Y-80075238D01*
X182090476Y-80170476D01*
X182138095Y-80265714D01*
%TO.C,SRAM1*%
X157318095Y-106814761D02*
X157460952Y-106862380D01*
X157699047Y-106862380D01*
X157794285Y-106814761D01*
X157841904Y-106767142D01*
X157889523Y-106671904D01*
X157889523Y-106576666D01*
X157841904Y-106481428D01*
X157794285Y-106433809D01*
X157699047Y-106386190D01*
X157508571Y-106338571D01*
X157413333Y-106290952D01*
X157365714Y-106243333D01*
X157318095Y-106148095D01*
X157318095Y-106052857D01*
X157365714Y-105957619D01*
X157413333Y-105910000D01*
X157508571Y-105862380D01*
X157746666Y-105862380D01*
X157889523Y-105910000D01*
X158889523Y-106862380D02*
X158556190Y-106386190D01*
X158318095Y-106862380D02*
X158318095Y-105862380D01*
X158699047Y-105862380D01*
X158794285Y-105910000D01*
X158841904Y-105957619D01*
X158889523Y-106052857D01*
X158889523Y-106195714D01*
X158841904Y-106290952D01*
X158794285Y-106338571D01*
X158699047Y-106386190D01*
X158318095Y-106386190D01*
X159270476Y-106576666D02*
X159746666Y-106576666D01*
X159175238Y-106862380D02*
X159508571Y-105862380D01*
X159841904Y-106862380D01*
X160175238Y-106862380D02*
X160175238Y-105862380D01*
X160508571Y-106576666D01*
X160841904Y-105862380D01*
X160841904Y-106862380D01*
X161841904Y-106862380D02*
X161270476Y-106862380D01*
X161556190Y-106862380D02*
X161556190Y-105862380D01*
X161460952Y-106005238D01*
X161365714Y-106100476D01*
X161270476Y-106148095D01*
%TO.C,C2*%
X122923333Y-61787142D02*
X122875714Y-61834761D01*
X122732857Y-61882380D01*
X122637619Y-61882380D01*
X122494761Y-61834761D01*
X122399523Y-61739523D01*
X122351904Y-61644285D01*
X122304285Y-61453809D01*
X122304285Y-61310952D01*
X122351904Y-61120476D01*
X122399523Y-61025238D01*
X122494761Y-60930000D01*
X122637619Y-60882380D01*
X122732857Y-60882380D01*
X122875714Y-60930000D01*
X122923333Y-60977619D01*
X123304285Y-60977619D02*
X123351904Y-60930000D01*
X123447142Y-60882380D01*
X123685238Y-60882380D01*
X123780476Y-60930000D01*
X123828095Y-60977619D01*
X123875714Y-61072857D01*
X123875714Y-61168095D01*
X123828095Y-61310952D01*
X123256666Y-61882380D01*
X123875714Y-61882380D01*
%TO.C,U1*%
X117258095Y-63492380D02*
X117258095Y-64301904D01*
X117305714Y-64397142D01*
X117353333Y-64444761D01*
X117448571Y-64492380D01*
X117639047Y-64492380D01*
X117734285Y-64444761D01*
X117781904Y-64397142D01*
X117829523Y-64301904D01*
X117829523Y-63492380D01*
X118829523Y-64492380D02*
X118258095Y-64492380D01*
X118543809Y-64492380D02*
X118543809Y-63492380D01*
X118448571Y-63635238D01*
X118353333Y-63730476D01*
X118258095Y-63778095D01*
%TO.C,H1*%
X149448095Y-89322380D02*
X149448095Y-88322380D01*
X149448095Y-88798571D02*
X150019523Y-88798571D01*
X150019523Y-89322380D02*
X150019523Y-88322380D01*
X151019523Y-89322380D02*
X150448095Y-89322380D01*
X150733809Y-89322380D02*
X150733809Y-88322380D01*
X150638571Y-88465238D01*
X150543333Y-88560476D01*
X150448095Y-88608095D01*
%TO.C,U4*%
X183932380Y-88631904D02*
X184741904Y-88631904D01*
X184837142Y-88584285D01*
X184884761Y-88536666D01*
X184932380Y-88441428D01*
X184932380Y-88250952D01*
X184884761Y-88155714D01*
X184837142Y-88108095D01*
X184741904Y-88060476D01*
X183932380Y-88060476D01*
X184265714Y-87155714D02*
X184932380Y-87155714D01*
X183884761Y-87393809D02*
X184599047Y-87631904D01*
X184599047Y-87012857D01*
%TO.C,C3*%
X113117142Y-114216666D02*
X113164761Y-114264285D01*
X113212380Y-114407142D01*
X113212380Y-114502380D01*
X113164761Y-114645238D01*
X113069523Y-114740476D01*
X112974285Y-114788095D01*
X112783809Y-114835714D01*
X112640952Y-114835714D01*
X112450476Y-114788095D01*
X112355238Y-114740476D01*
X112260000Y-114645238D01*
X112212380Y-114502380D01*
X112212380Y-114407142D01*
X112260000Y-114264285D01*
X112307619Y-114216666D01*
X112212380Y-113883333D02*
X112212380Y-113264285D01*
X112593333Y-113597619D01*
X112593333Y-113454761D01*
X112640952Y-113359523D01*
X112688571Y-113311904D01*
X112783809Y-113264285D01*
X113021904Y-113264285D01*
X113117142Y-113311904D01*
X113164761Y-113359523D01*
X113212380Y-113454761D01*
X113212380Y-113740476D01*
X113164761Y-113835714D01*
X113117142Y-113883333D01*
%TO.C,C4*%
X183017142Y-94396666D02*
X183064761Y-94444285D01*
X183112380Y-94587142D01*
X183112380Y-94682380D01*
X183064761Y-94825238D01*
X182969523Y-94920476D01*
X182874285Y-94968095D01*
X182683809Y-95015714D01*
X182540952Y-95015714D01*
X182350476Y-94968095D01*
X182255238Y-94920476D01*
X182160000Y-94825238D01*
X182112380Y-94682380D01*
X182112380Y-94587142D01*
X182160000Y-94444285D01*
X182207619Y-94396666D01*
X182445714Y-93539523D02*
X183112380Y-93539523D01*
X182064761Y-93777619D02*
X182779047Y-94015714D01*
X182779047Y-93396666D01*
%TO.C,C5*%
X146973333Y-62007142D02*
X146925714Y-62054761D01*
X146782857Y-62102380D01*
X146687619Y-62102380D01*
X146544761Y-62054761D01*
X146449523Y-61959523D01*
X146401904Y-61864285D01*
X146354285Y-61673809D01*
X146354285Y-61530952D01*
X146401904Y-61340476D01*
X146449523Y-61245238D01*
X146544761Y-61150000D01*
X146687619Y-61102380D01*
X146782857Y-61102380D01*
X146925714Y-61150000D01*
X146973333Y-61197619D01*
X147878095Y-61102380D02*
X147401904Y-61102380D01*
X147354285Y-61578571D01*
X147401904Y-61530952D01*
X147497142Y-61483333D01*
X147735238Y-61483333D01*
X147830476Y-61530952D01*
X147878095Y-61578571D01*
X147925714Y-61673809D01*
X147925714Y-61911904D01*
X147878095Y-62007142D01*
X147830476Y-62054761D01*
X147735238Y-62102380D01*
X147497142Y-62102380D01*
X147401904Y-62054761D01*
X147354285Y-62007142D01*
%TO.C,U2*%
X129108095Y-63522380D02*
X129108095Y-64331904D01*
X129155714Y-64427142D01*
X129203333Y-64474761D01*
X129298571Y-64522380D01*
X129489047Y-64522380D01*
X129584285Y-64474761D01*
X129631904Y-64427142D01*
X129679523Y-64331904D01*
X129679523Y-63522380D01*
X130108095Y-63617619D02*
X130155714Y-63570000D01*
X130250952Y-63522380D01*
X130489047Y-63522380D01*
X130584285Y-63570000D01*
X130631904Y-63617619D01*
X130679523Y-63712857D01*
X130679523Y-63808095D01*
X130631904Y-63950952D01*
X130060476Y-64522380D01*
X130679523Y-64522380D01*
%TO.C,U6*%
X114852380Y-109801904D02*
X115661904Y-109801904D01*
X115757142Y-109754285D01*
X115804761Y-109706666D01*
X115852380Y-109611428D01*
X115852380Y-109420952D01*
X115804761Y-109325714D01*
X115757142Y-109278095D01*
X115661904Y-109230476D01*
X114852380Y-109230476D01*
X114852380Y-108325714D02*
X114852380Y-108516190D01*
X114900000Y-108611428D01*
X114947619Y-108659047D01*
X115090476Y-108754285D01*
X115280952Y-108801904D01*
X115661904Y-108801904D01*
X115757142Y-108754285D01*
X115804761Y-108706666D01*
X115852380Y-108611428D01*
X115852380Y-108420952D01*
X115804761Y-108325714D01*
X115757142Y-108278095D01*
X115661904Y-108230476D01*
X115423809Y-108230476D01*
X115328571Y-108278095D01*
X115280952Y-108325714D01*
X115233333Y-108420952D01*
X115233333Y-108611428D01*
X115280952Y-108706666D01*
X115328571Y-108754285D01*
X115423809Y-108801904D01*
%TO.C,C7*%
X134743333Y-61907142D02*
X134695714Y-61954761D01*
X134552857Y-62002380D01*
X134457619Y-62002380D01*
X134314761Y-61954761D01*
X134219523Y-61859523D01*
X134171904Y-61764285D01*
X134124285Y-61573809D01*
X134124285Y-61430952D01*
X134171904Y-61240476D01*
X134219523Y-61145238D01*
X134314761Y-61050000D01*
X134457619Y-61002380D01*
X134552857Y-61002380D01*
X134695714Y-61050000D01*
X134743333Y-61097619D01*
X135076666Y-61002380D02*
X135743333Y-61002380D01*
X135314761Y-62002380D01*
%TO.C,U5*%
X183972380Y-74831904D02*
X184781904Y-74831904D01*
X184877142Y-74784285D01*
X184924761Y-74736666D01*
X184972380Y-74641428D01*
X184972380Y-74450952D01*
X184924761Y-74355714D01*
X184877142Y-74308095D01*
X184781904Y-74260476D01*
X183972380Y-74260476D01*
X183972380Y-73308095D02*
X183972380Y-73784285D01*
X184448571Y-73831904D01*
X184400952Y-73784285D01*
X184353333Y-73689047D01*
X184353333Y-73450952D01*
X184400952Y-73355714D01*
X184448571Y-73308095D01*
X184543809Y-73260476D01*
X184781904Y-73260476D01*
X184877142Y-73308095D01*
X184924761Y-73355714D01*
X184972380Y-73450952D01*
X184972380Y-73689047D01*
X184924761Y-73784285D01*
X184877142Y-73831904D01*
D11*
%TO.C,U3*%
X141080000Y-65060000D02*
X139430000Y-65060000D01*
X139430000Y-65060000D02*
X139430000Y-82960000D01*
X139430000Y-82960000D02*
X144730000Y-82960000D01*
X144730000Y-65060000D02*
X143080000Y-65060000D01*
X144730000Y-82960000D02*
X144730000Y-65060000D01*
X141080000Y-65060000D02*
G75*
G03*
X143080000Y-65060000I1000000J0D01*
G01*
%TO.C,C8*%
X184719000Y-114580000D02*
X183461000Y-114580000D01*
X184719000Y-116420000D02*
X183461000Y-116420000D01*
%TO.C,C1*%
X183940000Y-79819000D02*
X183940000Y-78561000D01*
X185780000Y-79819000D02*
X185780000Y-78561000D01*
%TO.C,SRAM1*%
X185800000Y-104665000D02*
G75*
G03*
X185800000Y-106665000I0J-1000000D01*
G01*
X185800000Y-104665000D02*
X185800000Y-99205000D01*
X145040000Y-112125000D02*
X185800000Y-112125000D01*
X145040000Y-99205000D02*
X145040000Y-112125000D01*
X185800000Y-99205000D02*
X145040000Y-99205000D01*
X185800000Y-112125000D02*
X185800000Y-106665000D01*
%TO.C,C2*%
X123779000Y-63990000D02*
X122521000Y-63990000D01*
X123779000Y-62150000D02*
X122521000Y-62150000D01*
%TO.C,U1*%
X117020000Y-65040000D02*
G75*
G03*
X119020000Y-65040000I1000000J0D01*
G01*
X117020000Y-65040000D02*
X115370000Y-65040000D01*
X120670000Y-82940000D02*
X120670000Y-65040000D01*
X115370000Y-82940000D02*
X120670000Y-82940000D01*
X115370000Y-65040000D02*
X115370000Y-82940000D01*
X120670000Y-65040000D02*
X119020000Y-65040000D01*
%TO.C,U4*%
X183480000Y-85220000D02*
X157960000Y-85220000D01*
X183480000Y-86870000D02*
X183480000Y-85220000D01*
X157960000Y-90520000D02*
X183480000Y-90520000D01*
X157960000Y-85220000D02*
X157960000Y-90520000D01*
X183480000Y-90520000D02*
X183480000Y-88870000D01*
X183480000Y-86870000D02*
G75*
G03*
X183480000Y-88870000I0J-1000000D01*
G01*
%TO.C,C3*%
X115520000Y-114749000D02*
X115520000Y-113491000D01*
X113680000Y-114749000D02*
X113680000Y-113491000D01*
%TO.C,C4*%
X185710000Y-93609000D02*
X185710000Y-92351000D01*
X183870000Y-93609000D02*
X183870000Y-92351000D01*
%TO.C,C5*%
X147749000Y-62570000D02*
X146491000Y-62570000D01*
X147749000Y-64410000D02*
X146491000Y-64410000D01*
%TO.C,U2*%
X128870000Y-65070000D02*
G75*
G03*
X130870000Y-65070000I1000000J0D01*
G01*
X127220000Y-82970000D02*
X132520000Y-82970000D01*
X132520000Y-65070000D02*
X130870000Y-65070000D01*
X128870000Y-65070000D02*
X127220000Y-65070000D01*
X132520000Y-82970000D02*
X132520000Y-65070000D01*
X127220000Y-65070000D02*
X127220000Y-82970000D01*
%TO.C,U6*%
X116400000Y-110040000D02*
X116400000Y-111690000D01*
X116400000Y-106390000D02*
X116400000Y-108040000D01*
X141920000Y-106390000D02*
X116400000Y-106390000D01*
X116400000Y-111690000D02*
X141920000Y-111690000D01*
X141920000Y-111690000D02*
X141920000Y-106390000D01*
X116400000Y-110040000D02*
G75*
G03*
X116400000Y-108040000I0J1000000D01*
G01*
%TO.C,C7*%
X135549000Y-64280000D02*
X134291000Y-64280000D01*
X135549000Y-62440000D02*
X134291000Y-62440000D01*
%TO.C,U5*%
X158000000Y-71420000D02*
X158000000Y-76720000D01*
X183520000Y-73070000D02*
X183520000Y-71420000D01*
X183520000Y-71420000D02*
X158000000Y-71420000D01*
X183520000Y-76720000D02*
X183520000Y-75070000D01*
X158000000Y-76720000D02*
X183520000Y-76720000D01*
X183520000Y-73070000D02*
G75*
G03*
X183520000Y-75070000I0J-1000000D01*
G01*
%TD*%
M02*
