%TF.GenerationSoftware,KiCad,Pcbnew,(6.0.8-1)-1*%
%TF.CreationDate,2023-02-02T17:23:50+01:00*%
%TF.ProjectId,OpenC64Cart,4f70656e-4336-4344-9361-72742e6b6963,2*%
%TF.SameCoordinates,Original*%
%TF.FileFunction,Soldermask,Bot*%
%TF.FilePolarity,Negative*%
%FSLAX46Y46*%
G04 Gerber Fmt 4.6, Leading zero omitted, Abs format (unit mm)*
G04 Created by KiCad (PCBNEW (6.0.8-1)-1) date 2023-02-02 17:23:50*
%MOMM*%
%LPD*%
G01*
G04 APERTURE LIST*
%ADD10R,1.600000X1.600000*%
%ADD11O,1.600000X1.600000*%
%ADD12C,1.600000*%
%ADD13R,8.000000X1.524000*%
%ADD14R,8.300000X58.420000*%
%ADD15C,5.500000*%
G04 APERTURE END LIST*
D10*
%TO.C,U3*%
X138270000Y-66390000D03*
D11*
X138270000Y-68930000D03*
X138270000Y-71470000D03*
X138270000Y-74010000D03*
X138270000Y-76550000D03*
X138270000Y-79090000D03*
X138270000Y-81630000D03*
X145890000Y-81630000D03*
X145890000Y-79090000D03*
X145890000Y-76550000D03*
X145890000Y-74010000D03*
X145890000Y-71470000D03*
X145890000Y-68930000D03*
X145890000Y-66390000D03*
%TD*%
D12*
%TO.C,C8*%
X185340000Y-115500000D03*
X182840000Y-115500000D03*
%TD*%
%TO.C,C1*%
X184860000Y-80440000D03*
X184860000Y-77940000D03*
%TD*%
D13*
%TO.C,U7*%
X107390774Y-115207500D03*
X107390774Y-112667500D03*
X107390774Y-110127500D03*
X107390774Y-107587500D03*
X107390774Y-105047500D03*
X107390774Y-102507500D03*
X107390774Y-99967500D03*
X107390774Y-97427500D03*
X107390774Y-94887500D03*
X107390774Y-92347500D03*
X107390774Y-89807500D03*
X107390774Y-87267500D03*
X107390774Y-84727500D03*
X107390774Y-82187500D03*
X107390774Y-79647500D03*
X107390774Y-77107500D03*
X107390774Y-74567500D03*
X107390774Y-72027500D03*
X107390774Y-69487500D03*
X107390774Y-66947500D03*
X107390774Y-64407500D03*
X107390774Y-61867500D03*
D14*
X107262500Y-88537500D03*
%TD*%
D11*
%TO.C,SRAM1*%
X184470000Y-113285000D03*
X181930000Y-113285000D03*
X179390000Y-113285000D03*
X176850000Y-113285000D03*
X174310000Y-113285000D03*
X171770000Y-113285000D03*
X169230000Y-113285000D03*
X166690000Y-113285000D03*
X164150000Y-113285000D03*
X161610000Y-113285000D03*
X159070000Y-113285000D03*
X156530000Y-113285000D03*
X153990000Y-113285000D03*
X151450000Y-113285000D03*
X148910000Y-113285000D03*
X146370000Y-113285000D03*
X146370000Y-98045000D03*
X148910000Y-98045000D03*
X151450000Y-98045000D03*
X153990000Y-98045000D03*
X156530000Y-98045000D03*
X159070000Y-98045000D03*
X161610000Y-98045000D03*
X164150000Y-98045000D03*
X166690000Y-98045000D03*
X169230000Y-98045000D03*
X171770000Y-98045000D03*
X174310000Y-98045000D03*
X176850000Y-98045000D03*
X179390000Y-98045000D03*
X181930000Y-98045000D03*
D10*
X184470000Y-98045000D03*
%TD*%
D12*
%TO.C,C2*%
X124400000Y-63070000D03*
X121900000Y-63070000D03*
%TD*%
D11*
%TO.C,U1*%
X121830000Y-66370000D03*
X121830000Y-68910000D03*
X121830000Y-71450000D03*
X121830000Y-73990000D03*
X121830000Y-76530000D03*
X121830000Y-79070000D03*
X121830000Y-81610000D03*
X114210000Y-81610000D03*
X114210000Y-79070000D03*
X114210000Y-76530000D03*
X114210000Y-73990000D03*
X114210000Y-71450000D03*
X114210000Y-68910000D03*
D10*
X114210000Y-66370000D03*
%TD*%
D15*
%TO.C,H1*%
X145846800Y-88874600D03*
%TD*%
D10*
%TO.C,U4*%
X182150000Y-84060000D03*
D11*
X179610000Y-84060000D03*
X177070000Y-84060000D03*
X174530000Y-84060000D03*
X171990000Y-84060000D03*
X169450000Y-84060000D03*
X166910000Y-84060000D03*
X164370000Y-84060000D03*
X161830000Y-84060000D03*
X159290000Y-84060000D03*
X159290000Y-91680000D03*
X161830000Y-91680000D03*
X164370000Y-91680000D03*
X166910000Y-91680000D03*
X169450000Y-91680000D03*
X171990000Y-91680000D03*
X174530000Y-91680000D03*
X177070000Y-91680000D03*
X179610000Y-91680000D03*
X182150000Y-91680000D03*
%TD*%
D12*
%TO.C,C3*%
X114600000Y-115370000D03*
X114600000Y-112870000D03*
%TD*%
%TO.C,C4*%
X184790000Y-94230000D03*
X184790000Y-91730000D03*
%TD*%
%TO.C,C5*%
X148370000Y-63490000D03*
X145870000Y-63490000D03*
%TD*%
D11*
%TO.C,U2*%
X133680000Y-66400000D03*
X133680000Y-68940000D03*
X133680000Y-71480000D03*
X133680000Y-74020000D03*
X133680000Y-76560000D03*
X133680000Y-79100000D03*
X133680000Y-81640000D03*
X126060000Y-81640000D03*
X126060000Y-79100000D03*
X126060000Y-76560000D03*
X126060000Y-74020000D03*
X126060000Y-71480000D03*
X126060000Y-68940000D03*
D10*
X126060000Y-66400000D03*
%TD*%
%TO.C,U6*%
X117730000Y-112850000D03*
D11*
X120270000Y-112850000D03*
X122810000Y-112850000D03*
X125350000Y-112850000D03*
X127890000Y-112850000D03*
X130430000Y-112850000D03*
X132970000Y-112850000D03*
X135510000Y-112850000D03*
X138050000Y-112850000D03*
X140590000Y-112850000D03*
X140590000Y-105230000D03*
X138050000Y-105230000D03*
X135510000Y-105230000D03*
X132970000Y-105230000D03*
X130430000Y-105230000D03*
X127890000Y-105230000D03*
X125350000Y-105230000D03*
X122810000Y-105230000D03*
X120270000Y-105230000D03*
X117730000Y-105230000D03*
%TD*%
D12*
%TO.C,C7*%
X133670000Y-63360000D03*
X136170000Y-63360000D03*
%TD*%
D10*
%TO.C,U5*%
X182190000Y-70260000D03*
D11*
X179650000Y-70260000D03*
X177110000Y-70260000D03*
X174570000Y-70260000D03*
X172030000Y-70260000D03*
X169490000Y-70260000D03*
X166950000Y-70260000D03*
X164410000Y-70260000D03*
X161870000Y-70260000D03*
X159330000Y-70260000D03*
X159330000Y-77880000D03*
X161870000Y-77880000D03*
X164410000Y-77880000D03*
X166950000Y-77880000D03*
X169490000Y-77880000D03*
X172030000Y-77880000D03*
X174570000Y-77880000D03*
X177110000Y-77880000D03*
X179650000Y-77880000D03*
X182190000Y-77880000D03*
%TD*%
M02*
