M48
; DRILL file {KiCad (6.0.8-1)-1} date 2023 February 02, Thursday 17:24:05
; FORMAT={-:-/ absolute / inch / decimal}
; #@! TF.CreationDate,2023-02-02T17:24:05+01:00
; #@! TF.GenerationSoftware,Kicad,Pcbnew,(6.0.8-1)-1
; #@! TF.FileFunction,Plated,1,2,PTH
FMAT,2
INCH
; #@! TA.AperFunction,Plated,PTH,ViaDrill
T1C0.0157
; #@! TA.AperFunction,Plated,PTH,ComponentDrill
T2C0.0315
%
G90
G05
T1
X4.4138Y-2.4358
X4.421Y-4.545
X4.4484Y-2.8642
X4.452Y-3.718
X4.5347Y-3.88
X4.6362Y-3.698
X4.637Y-3.8744
X4.6667Y-3.7152
X4.6681Y-3.8555
X4.7075Y-3.7154
X4.7079Y-3.8559
X4.7429Y-3.8539
X4.7435Y-3.7167
X4.7843Y-3.7169
X4.7864Y-3.8549
X4.7886Y-4.0724
X4.8264Y-3.7185
X4.8309Y-3.8561
X4.8754Y-3.7195
X4.8762Y-3.8545
X4.9594Y-2.5398
X5.0583Y-3.8122
X5.091Y-3.8142
X5.1486Y-3.6482
X5.1868Y-3.7173
X5.2108Y-3.6481
X5.211Y-3.6972
X5.2378Y-3.676
X5.2626Y-3.6528
X5.2833Y-3.3893
X5.2902Y-3.6283
X5.3146Y-3.6071
X5.3313Y-3.7448
X5.3316Y-2.8108
X5.3325Y-3.7133
X5.3463Y-3.4459
X5.3646Y-3.701
X5.3701Y-3.804
X5.3854Y-3.6246
X5.3904Y-3.6793
X5.4015Y-3.8033
X5.4072Y-3.6492
X5.4114Y-3.6
X5.4469Y-3.8268
X5.4831Y-3.8272
X5.5228Y-3.8232
X5.5249Y-3.295
X5.5249Y-3.3344
X5.5669Y-3.8213
X5.8854Y-2.665
X6.0787Y-3.7343
X6.1323Y-3.6776
X6.1449Y-3.2654
X6.214Y-3.7431
X6.2248Y-3.6957
X6.2449Y-2.9441
X7.3484Y-3.9252
T2
X4.4965Y-2.613
X4.4965Y-2.713
X4.4965Y-2.813
X4.4965Y-2.913
X4.4965Y-3.013
X4.4965Y-3.113
X4.4965Y-3.213
X4.5118Y-4.4437
X4.5118Y-4.5421
X4.635Y-4.1429
X4.635Y-4.4429
X4.735Y-4.1429
X4.735Y-4.4429
X4.7965Y-2.613
X4.7965Y-2.713
X4.7965Y-2.813
X4.7965Y-2.913
X4.7965Y-3.013
X4.7965Y-3.113
X4.7965Y-3.213
X4.7992Y-2.4831
X4.835Y-4.1429
X4.835Y-4.4429
X4.8976Y-2.4831
X4.935Y-4.1429
X4.935Y-4.4429
X4.963Y-2.6142
X4.963Y-2.7142
X4.963Y-2.8142
X4.963Y-2.9142
X4.963Y-3.0142
X4.963Y-3.1142
X4.963Y-3.2142
X5.035Y-4.1429
X5.035Y-4.4429
X5.135Y-4.1429
X5.135Y-4.4429
X5.235Y-4.1429
X5.235Y-4.4429
X5.2626Y-2.4945
X5.263Y-2.6142
X5.263Y-2.7142
X5.263Y-2.8142
X5.263Y-2.9142
X5.263Y-3.0142
X5.263Y-3.1142
X5.263Y-3.2142
X5.335Y-4.1429
X5.335Y-4.4429
X5.361Y-2.4945
X5.435Y-4.1429
X5.435Y-4.4429
X5.4437Y-2.6138
X5.4437Y-2.7138
X5.4437Y-2.8138
X5.4437Y-2.9138
X5.4437Y-3.0138
X5.4437Y-3.1138
X5.4437Y-3.2138
X5.535Y-4.1429
X5.535Y-4.4429
X5.7429Y-2.4996
X5.7437Y-2.6138
X5.7437Y-2.7138
X5.7437Y-2.8138
X5.7437Y-2.9138
X5.7437Y-3.0138
X5.7437Y-3.1138
X5.7437Y-3.2138
X5.7626Y-3.86
X5.7626Y-4.46
X5.8413Y-2.4996
X5.8626Y-3.86
X5.8626Y-4.46
X5.9626Y-3.86
X5.9626Y-4.46
X6.0626Y-3.86
X6.0626Y-4.46
X6.1626Y-3.86
X6.1626Y-4.46
X6.2626Y-3.86
X6.2626Y-4.46
X6.2713Y-3.3094
X6.2713Y-3.6094
X6.2728Y-2.7661
X6.2728Y-3.0661
X6.3626Y-3.86
X6.3626Y-4.46
X6.3713Y-3.3094
X6.3713Y-3.6094
X6.3728Y-2.7661
X6.3728Y-3.0661
X6.4626Y-3.86
X6.4626Y-4.46
X6.4713Y-3.3094
X6.4713Y-3.6094
X6.4728Y-2.7661
X6.4728Y-3.0661
X6.5626Y-3.86
X6.5626Y-4.46
X6.5713Y-3.3094
X6.5713Y-3.6094
X6.5728Y-2.7661
X6.5728Y-3.0661
X6.6626Y-3.86
X6.6626Y-4.46
X6.6713Y-3.3094
X6.6713Y-3.6094
X6.6728Y-2.7661
X6.6728Y-3.0661
X6.7626Y-3.86
X6.7626Y-4.46
X6.7713Y-3.3094
X6.7713Y-3.6094
X6.7728Y-2.7661
X6.7728Y-3.0661
X6.8626Y-3.86
X6.8626Y-4.46
X6.8713Y-3.3094
X6.8713Y-3.6094
X6.8728Y-2.7661
X6.8728Y-3.0661
X6.9626Y-3.86
X6.9626Y-4.46
X6.9713Y-3.3094
X6.9713Y-3.6094
X6.9728Y-2.7661
X6.9728Y-3.0661
X7.0626Y-3.86
X7.0626Y-4.46
X7.0713Y-3.3094
X7.0713Y-3.6094
X7.0728Y-2.7661
X7.0728Y-3.0661
X7.1626Y-3.86
X7.1626Y-4.46
X7.1713Y-3.3094
X7.1713Y-3.6094
X7.1728Y-2.7661
X7.1728Y-3.0661
X7.1984Y-4.5472
X7.2626Y-3.86
X7.2626Y-4.46
X7.2752Y-3.6114
X7.2752Y-3.7098
X7.278Y-3.0685
X7.278Y-3.1669
X7.2969Y-4.5472
T0
M30
